<?xml version="1.0" encoding="utf-8"?>
<!-- Generator: Adobe Illustrator 28.2.0, SVG Export Plug-In . SVG Version: 6.00 Build 0)  -->
<svg version="1.1" id="Layer_1" xmlns="http://www.w3.org/2000/svg" xmlns:xlink="http://www.w3.org/1999/xlink" x="0px" y="0px"
	 viewBox="0 0 303 51.1" style="enable-background:new 0 0 303 51.1;" xml:space="preserve">
<style type="text/css">
	.st0{fill:#2E2E2E;}
	.st1{fill:none;}
	.st2{fill-rule:evenodd;clip-rule:evenodd;fill:#FED61F;}
</style>
<g id="Layer_1_00000119840180466721573550000014990505581225840303_">
	<g>
		<g>
			<g>
				<path class="st0" d="M57.1,34.4c-0.1,0-0.3-0.1-0.3-0.3l0.1-8v-8.7c0-0.1,0.1-0.3,0.3-0.3h4.3c0.1,0,0.3,0.1,0.3,0.3l-0.1,1.9
					c1.2-1.5,3.1-2.6,5.5-2.6c3.6,0,6,2.5,6,6.7v3.6l0.1,7.1c0,0.1-0.1,0.3-0.3,0.3h-4.5c-0.1,0-0.3-0.1-0.3-0.3l0.1-7.1v-3.5
					c0-1.9-1.1-3.1-2.6-3.1c-1.8,0-3.7,1.7-3.7,5.3v1.3l0.1,7.1c0,0.1-0.1,0.3-0.3,0.3L57.1,34.4L57.1,34.4z"/>
				<path class="st0" d="M74.6,15.5c-0.1,0-0.3-0.1-0.3-0.3v-4c0-0.1,0.1-0.3,0.3-0.3h4.5c0.1,0,0.3,0.1,0.3,0.3v4
					c0,0.1-0.1,0.3-0.3,0.3C79.2,15.5,74.6,15.5,74.6,15.5z M74.6,34.4c-0.1,0-0.3-0.1-0.3-0.3l0.1-8.3l-0.1-8.4
					c0-0.1,0.1-0.3,0.3-0.3h4.5c0.1,0,0.3,0.1,0.3,0.3l-0.1,8.4l0.1,8.3c0,0.1-0.1,0.3-0.3,0.3H74.6z"/>
				<path class="st0" d="M89.1,34.8c-5.5,0-8.8-3.5-8.8-9s3.3-9.1,8.9-9.1c4.4,0,7.3,2.5,7.7,6.3c0,0.1-0.1,0.3-0.2,0.3h-4.1
					c-0.1,0-0.3-0.1-0.3-0.3c-0.4-2-1.6-2.9-3-2.9c-2.5,0-3.7,1.9-3.7,5.7c0,3.9,1.2,5.7,3.7,5.7c1.7,0,3-1.2,3.2-3.4
					c0-0.2,0.2-0.3,0.3-0.3h4.2c0.1,0,0.3,0.1,0.2,0.3C96.8,32,93.6,34.8,89.1,34.8z"/>
				<path class="st0" d="M107.8,34.7c-2.1,0-3.7-0.7-4.9-2.1l0.1,7.2c0,0.1-0.1,0.3-0.3,0.3h-4.5c-0.1,0-0.3-0.1-0.3-0.3l0.1-12.4
					l-0.1-10c0-0.1,0.1-0.3,0.3-0.3h4.5c0.1,0,0.3,0.1,0.3,0.3l-0.1,1.7c1.2-1.5,2.9-2.3,5.1-2.3c4.9,0,7.5,3.9,7.5,8.9
					C115.3,30.7,112.5,34.7,107.8,34.7z M106.4,31.4c2.5,0,3.8-1.8,3.8-5.3c0-3.8-1.3-5.7-3.7-5.7s-3.7,1.8-3.8,5.4
					C102.7,29.3,104,31.4,106.4,31.4z"/>
				<path class="st0" d="M124.7,34.8c-5.6,0-8.9-3.5-8.9-9s3.2-9.1,8.9-9.1c5.6,0,8.8,3.5,8.8,9C133.4,31.2,130.3,34.8,124.7,34.8z
					 M124.7,31.5c2.5,0,3.6-1.7,3.6-5.7c0-3.9-1.2-5.7-3.7-5.7c-2.5,0-3.7,1.9-3.7,5.8C120.9,29.8,122.1,31.5,124.7,31.5z"/>
				<path class="st0" d="M140.2,34.8c-3.6,0-6-2.5-6-6.7v-3.6l-0.1-7.1c0-0.1,0.1-0.3,0.3-0.3h4.5c0.1,0,0.3,0.1,0.3,0.3l-0.1,7.1
					V28c0,1.9,1.1,3.1,2.6,3.1c1.8,0,3.7-1.7,3.7-5.3v-1.3l-0.1-7.1c0-0.1,0.1-0.3,0.3-0.3h4.6c0.1,0,0.3,0.1,0.3,0.3l-0.1,8v8.7
					c0,0.1-0.1,0.3-0.3,0.3h-4.3c-0.1,0-0.3-0.1-0.3-0.3l0.1-1.9C144.5,33.7,142.6,34.8,140.2,34.8z"/>
				<path class="st0" d="M160.1,34.8c-5.5,0-8.8-3.5-8.8-9s3.3-9.1,8.9-9.1c4.4,0,7.3,2.5,7.7,6.3c0,0.1-0.1,0.3-0.2,0.3h-4.1
					c-0.1,0-0.3-0.1-0.3-0.3c-0.4-2-1.6-2.9-3-2.9c-2.5,0-3.7,1.9-3.7,5.7c0,3.9,1.2,5.7,3.7,5.7c1.7,0,3-1.2,3.2-3.4
					c0-0.2,0.2-0.3,0.3-0.3h4.2c0.1,0,0.3,0.1,0.2,0.3C167.8,32,164.6,34.8,160.1,34.8z"/>
				<path class="st0" d="M177.6,20.5c-1.6,0-3.3,1.3-3.9,3.7l0.1,10c0,0.1-0.1,0.3-0.3,0.3h-4.4c-0.1,0-0.3-0.1-0.3-0.3l0.1-11.5
					l-0.1-11.4c0-0.1,0.1-0.3,0.3-0.3h4.4c0.1,0,0.3,0.1,0.3,0.3l-0.1,7.8c1.2-1.5,2.9-2.3,5.2-2.3c3.9,0,6.3,2.3,6.2,7.4v3.7
					l0.1,6.3c0,0.1-0.1,0.3-0.3,0.3h-4.5c-0.1,0-0.3-0.1-0.3-0.3l0.1-6.3v-4.3C180.1,21.5,179,20.5,177.6,20.5z"/>
				<path class="st0" d="M202.7,28.6c0.1,0,0.3,0.1,0.2,0.3c-0.4,3.2-3.4,6-8.3,6c-5.7,0-8.9-3.8-8.9-9c0-5.5,3.3-9.1,8.8-9.1
					c5.7,0,8.8,3.8,8.9,9.8c0,0.1-0.1,0.3-0.3,0.3h-12.3c0.2,3.2,1.5,4.7,3.9,4.7c1.7,0,2.9-0.8,3.3-2.6c0-0.2,0.2-0.3,0.3-0.3
					L202.7,28.6L202.7,28.6z M194.6,20.1c-2,0-3.2,1.2-3.6,3.6h7.1C197.8,21.8,196.8,20.1,194.6,20.1z"/>
				<path class="st0" d="M211.8,34.8c-5.1,0-8.2-2-8.3-5.9c0-0.1,0.1-0.3,0.3-0.3h4.3c0.1,0,0.3,0.1,0.3,0.3
					c0.1,1.9,1.4,2.8,3.7,2.8c2,0,3-0.8,3-2.1c0-3.3-11.3-0.1-11.3-7.3c0-3.6,2.9-5.5,7.5-5.5c4.5,0,7.6,1.8,7.9,5.4
					c0,0.1-0.1,0.3-0.2,0.3H215c-0.1,0-0.3-0.1-0.3-0.3c-0.3-1.5-1.2-2.4-3.2-2.4c-1.6,0-2.7,0.6-2.7,2.1c0,3.3,11.3-0.1,11.3,7.3
					C220,32.8,216.6,34.8,211.8,34.8z"/>
				<path class="st0" d="M233.1,34.4c-0.1,0-0.3-0.1-0.3-0.3l0.1-1.7c-1.2,1.5-2.9,2.3-5.1,2.3c-4.9,0-7.5-3.9-7.5-8.9
					c0-5,2.9-9,7.6-9c2.1,0,3.7,0.7,4.9,2.1v-7.7c0-0.1,0.1-0.3,0.3-0.3h4.5c0.1,0,0.3,0.1,0.3,0.3l0,11.4l0,11.4
					c0,0.1-0.1,0.3-0.3,0.3L233.1,34.4L233.1,34.4z M229.3,31.4c2.4,0,3.7-1.8,3.8-5.5c0-3.7-1.3-5.7-3.7-5.8
					c-2.5-0.1-3.8,1.9-3.8,5.4C225.6,29.5,226.9,31.5,229.3,31.4z"/>
				<path class="st0" d="M239.4,15.5c-0.1,0-0.3-0.1-0.3-0.3v-4c0-0.1,0.1-0.3,0.3-0.3h4.5c0.1,0,0.3,0.1,0.3,0.3v4
					c0,0.1-0.1,0.3-0.3,0.3C244,15.5,239.4,15.5,239.4,15.5z M239.4,34.4c-0.1,0-0.3-0.1-0.3-0.3l0.1-8.3l-0.1-8.4
					c0-0.1,0.1-0.3,0.3-0.3h4.5c0.1,0,0.3,0.1,0.3,0.3l-0.1,8.4l0.1,8.3c0,0.1-0.1,0.3-0.3,0.3H239.4z"/>
				<path class="st0" d="M245.7,34.4c-0.1,0-0.3-0.1-0.3-0.3l0.1-8.4l-0.1-8.3c0-0.1,0.1-0.3,0.3-0.3h4.4c0.1,0,0.3,0.1,0.3,0.3
					l-0.1,2.6c1.3-2,3.6-3,6.2-3c0.3,0,0.6,0,0.8,0.1c0.1,0,0.3,0.2,0.3,0.3v3.2c0,0.1-0.1,0.2-0.3,0.2c-0.2,0-0.5,0-0.7,0
					c-3.5,0-6.2,2-6.2,5.9v7.4c0,0.1-0.1,0.3-0.3,0.3L245.7,34.4L245.7,34.4z"/>
				<path class="st0" d="M273.8,28.6c0.1,0,0.3,0.1,0.2,0.3c-0.4,3.2-3.4,6-8.3,6c-5.7,0-8.9-3.8-8.9-9c0-5.5,3.3-9.1,8.8-9.1
					c5.7,0,8.8,3.8,8.9,9.8c0,0.1-0.1,0.3-0.3,0.3H262c0.2,3.2,1.5,4.7,3.9,4.7c1.7,0,2.9-0.8,3.3-2.6c0-0.2,0.2-0.3,0.3-0.3
					L273.8,28.6L273.8,28.6z M265.7,20.1c-2,0-3.2,1.2-3.6,3.6h7.1C269,21.8,267.9,20.1,265.7,20.1z"/>
				<path class="st0" d="M283.9,34.8c-5.5,0-8.8-3.5-8.8-9s3.3-9.1,8.9-9.1c4.4,0,7.3,2.5,7.7,6.3c0,0.1-0.1,0.3-0.2,0.3h-4.1
					c-0.1,0-0.3-0.1-0.3-0.3c-0.4-2-1.6-2.9-3-2.9c-2.5,0-3.7,1.9-3.7,5.7c0,3.9,1.2,5.7,3.7,5.7c1.7,0,3-1.2,3.2-3.4
					c0-0.2,0.2-0.3,0.3-0.3h4.2c0.1,0,0.3,0.1,0.2,0.3C291.5,32,288.4,34.8,283.9,34.8z"/>
				<path class="st0" d="M302.9,33.8c0,0.2-0.1,0.3-0.3,0.4c-1,0.3-2.1,0.6-3.1,0.6c-2.9,0-5.7-1.5-5.7-5.4l0-8.6h-2
					c-0.1,0-0.3-0.1-0.3-0.3v-3c0-0.1,0.1-0.3,0.3-0.3h2l0-4c0-0.1,0.1-0.3,0.3-0.3h4.5c0.1,0,0.3,0.1,0.3,0.3l0,4h3.9
					c0.1,0,0.3,0.1,0.3,0.3v3c0,0.1-0.1,0.3-0.3,0.3h-3.9l0,8.5c0,1.5,0.7,1.9,1.8,1.9c0.8,0,1.5-0.1,2-0.3c0.1,0,0.3,0.1,0.3,0.2
					L302.9,33.8L302.9,33.8z"/>
			</g>
		</g>
		<g>
			<g>
				<g>
					<g>
						<path class="st1" d="M51.1,25.5c0-3.3-0.7-6.7-1.9-9.8c-1.3-3.1-3.2-5.9-5.5-8.3c-2.4-2.4-5.2-4.3-8.3-5.5
							C32.2,0.7,28.9,0,25.5,0s-6.7,0.7-9.8,1.9c-3.1,1.3-5.9,3.2-8.3,5.5s-4.3,5.2-5.5,8.3C0.7,18.9,0,22.2,0,25.5
							c0,3.3,0.7,6.7,1.9,9.8c1.3,3.1,3.2,5.9,5.5,8.3c2.4,2.4,5.2,4.3,8.3,5.5c3.1,1.3,6.4,1.9,9.8,1.9s6.7-0.7,9.8-1.9
							c3.1-1.3,5.9-3.2,8.3-5.5c2.4-2.4,4.3-5.2,5.5-8.3C50.4,32.2,51.1,28.9,51.1,25.5h-4.6c0,2.8-0.5,5.5-1.6,8
							c-1.1,2.5-2.6,4.9-4.6,6.8s-4.3,3.5-6.8,4.6c-2.5,1.1-5.3,1.6-8,1.6c-2.8,0-5.5-0.5-8-1.6c-2.5-1.1-4.9-2.6-6.8-4.6
							c-1.9-1.9-3.5-4.3-4.6-6.8c-1.1-2.5-1.6-5.3-1.6-8c0-2.8,0.5-5.5,1.6-8c1.1-2.5,2.6-4.9,4.6-6.8s4.3-3.5,6.8-4.6
							c2.5-1.1,5.3-1.6,8-1.6c2.8,0,5.5,0.5,8,1.6c2.5,1.1,4.9,2.6,6.8,4.6c1.9,1.9,3.5,4.3,4.6,6.8c1.1,2.5,1.6,5.3,1.6,8H51.1z"/>
						<path class="st2" d="M48.6,25.5c0,0,0,0.1,0,0.1c0,0,0,0.3,0,0.7C48.6,26,48.6,25.9,48.6,25.5z"/>
						<path class="st2" d="M48.1,28.1c0,0.1,0,0.3-0.1,0.5C48.1,28.4,48.1,28.2,48.1,28.1z"/>
						<path class="st2" d="M48,29c0,0,0,0.3-0.1,0.4C48,29.4,48,29.1,48,29z"/>
						<path class="st2" d="M47.9,29.4c0-0.1-0.1,0.3-0.1,0.4h0c-0.1,0.4-0.1,0.4-0.1,0.8c0-0.1,0.1-0.3,0.1-0.5
							C47.9,29.8,47.9,29.5,47.9,29.4z"/>
						<path class="st2" d="M48,29.5c0,0,0,0.2,0,0.4C47.9,29.8,47.9,29.6,48,29.5z"/>
						<path class="st2" d="M47.9,29.8c0,0.1,0,0.2,0,0.4c0,0.1-0.1,0.3-0.1,0.4C47.8,30.3,47.9,30.1,47.9,29.8z"/>
						<path class="st2" d="M49,29.8c0,0,0,0.3,0,0.2c0,0,0,0.1,0,0.1l0,0.1C48.9,30.1,48.9,30,49,29.8z"/>
						<path class="st2" d="M48.8,30.5c0,0.1,0,0.2-0.1,0.3C48.7,30.8,48.7,30.7,48.8,30.5z"/>
						<path class="st2" d="M49.5,30.8c0,0.2-0.1,0.5-0.1,0.6C49.3,31.3,49.4,31,49.5,30.8z"/>
						<path class="st2" d="M47.6,31.1c0,0.2-0.1,0.5-0.2,0.6C47.4,31.6,47.5,31.4,47.6,31.1z"/>
						<path class="st2" d="M48.4,32.2c0-0.1,0-0.2,0.1-0.4c0,0-0.1,0.4,0,0.2c0,0-0.1,0.3-0.1,0.5C48.3,32.4,48.4,32.2,48.4,32.2z"
							/>
						<path class="st2" d="M49,32.6c0,0,0,0.2-0.1,0.4c-0.1,0.2-0.1,0.4-0.2,0.4C48.8,33.2,48.9,32.9,49,32.6z"/>
						<path class="st2" d="M47.8,34.1c0,0.1-0.1,0.3-0.1,0.4C47.6,34.4,47.7,34.2,47.8,34.1z"/>
						<path class="st2" d="M46.6,34c0,0-0.1,0.3-0.1,0.3C46.5,34.2,46.5,34.1,46.6,34z"/>
						<path class="st2" d="M45.2,36.9c0.1-0.1-0.2,0.3-0.2,0.3C45,37.1,45.1,37.1,45.2,36.9z"/>
						<path class="st2" d="M45.2,36.9c0,0-0.1,0.1-0.1,0.2c0,0-0.1,0.2-0.2,0.3c-0.1,0.1-0.1,0.2-0.1,0.2
							C45,37.4,45.1,37.2,45.2,36.9z"/>
						<path class="st2" d="M43.5,39.4c0,0.1-0.5,0.7-0.6,0.7C43.1,39.9,43.3,39.7,43.5,39.4z"/>
						<path class="st2" d="M43.4,41.1C43.6,40.9,44,40.5,43.4,41.1L43.4,41.1z"/>
						<path class="st2" d="M41.6,41.5c-0.1,0.1-0.3,0.3-0.6,0.6C41.1,42,41.4,41.7,41.6,41.5z"/>
						<path class="st2" d="M41.5,42.9c0,0,0,0.1-0.2,0.2c-0.1,0.1,0,0,0,0C41.5,42.9,41.3,43.1,41.5,42.9z"/>
						<path class="st2" d="M38.5,45.2c0,0-0.2,0.2-0.3,0.2C38.2,45.4,38.3,45.3,38.5,45.2z"/>
						<path class="st2" d="M37.8,44.5c0,0-0.3,0.2-0.3,0.2C37.6,44.6,37.6,44.6,37.8,44.5z"/>
						<path class="st2" d="M38.5,45.6c0,0-0.4,0.3-0.4,0.2C38.3,45.7,38.3,45.7,38.5,45.6z"/>
						<path class="st2" d="M37.3,44.9c-0.4,0.2-0.4,0.2-0.9,0.5C36.5,45.3,36.9,45.1,37.3,44.9z"/>
						<path class="st2" d="M36.3,45.3c-0.1,0.1-0.2,0.1-0.4,0.2C36,45.4,36.2,45.3,36.3,45.3z"/>
						<path class="st2" d="M35.7,45.6c0,0-0.2,0.1-0.2,0.1c-0.1,0,0,0-0.1,0C35.6,45.7,35.6,45.6,35.7,45.6z"/>
						<path class="st2" d="M35.8,45.7c-0.2,0.1-0.5,0.2-0.8,0.4c0.1-0.1,0.3-0.1,0.4-0.2C35.6,45.8,35.7,45.7,35.8,45.7z"/>
						<path class="st2" d="M34.8,44.7c0.1,0-0.1,0.1-0.2,0.1C34.1,45,34.7,44.7,34.8,44.7z"/>
						<path class="st2" d="M35.8,46.7c0.2-0.1,0,0.1-0.2,0.1C35.5,46.9,35.8,46.8,35.8,46.7z"/>
						<path class="st2" d="M34.4,46.6c0,0-0.3,0.2-0.5,0.2C34,46.8,34.3,46.7,34.4,46.6z"/>
						<path class="st2" d="M34.2,46.5C34.2,46.5,34.1,46.6,34.2,46.5c-0.1,0.1-0.3,0.1-0.3,0.1C34,46.6,34.1,46.6,34.2,46.5
							C34.2,46.5,34.2,46.5,34.2,46.5z"/>
						<path class="st2" d="M33.4,47.1c0.2,0-0.3,0.1-0.3,0.1c0,0,0,0,0,0c0,0,0,0,0,0C33.3,47.1,33.3,47.1,33.4,47.1z"/>
						<path class="st2" d="M33,47.9c0.1,0-0.4,0.1-0.5,0.2C32.6,48,32.7,48,33,47.9z"/>
						<path class="st2" d="M32.2,47.9L32,47.9C31.9,47.9,32.2,47.8,32.2,47.9z"/>
						<path class="st2" d="M31.1,48.2c-0.1,0.1-0.4,0.1-0.6,0.1C30.6,48.3,31,48.2,31.1,48.2z"/>
						<path class="st2" d="M29.7,47.4c-0.2,0-0.2,0-0.3,0C29.4,47.4,29.7,47.4,29.7,47.4z"/>
						<path class="st2" d="M28.1,48.5c-0.1,0-0.4,0.1-0.5,0.1C27.7,48.5,28,48.5,28.1,48.5z"/>
						<path class="st2" d="M27.3,48.5c0,0-0.5,0-0.7,0.1C26.6,48.6,27.2,48.5,27.3,48.5z"/>
						<path class="st2" d="M25.9,47.7c-0.1,0-0.4,0-0.3,0C25.8,47.7,25.7,47.8,25.9,47.7z"/>
						<path class="st2" d="M25.8,48.6c0,0-0.3,0-0.6,0c0,0,0.4,0,0.2,0C25.5,48.5,25.7,48.6,25.8,48.6z"/>
						<path class="st2" d="M24.8,48.6C24.7,48.6,24.9,48.6,24.8,48.6c0.2,0,0.4,0,0.3,0c0,0-0.1,0-0.2,0
							C24.9,48.6,24.9,48.6,24.8,48.6z"/>
						<path class="st2" d="M24.9,48.6c-0.2,0-0.4,0-0.6,0C24.4,48.5,24.8,48.6,24.9,48.6z"/>
						<path class="st2" d="M23.8,49.6c0,0-0.3,0-0.3,0C23.6,49.5,23.7,49.6,23.8,49.6z"/>
						<path class="st2" d="M22.6,48.9c0,0-0.4,0-0.3,0C22.4,48.9,22.4,48.9,22.6,48.9z"/>
						<path class="st2" d="M21.4,49.1c-0.1,0-0.3,0-0.4-0.1C21,49,21.3,49,21.4,49.1z"/>
						<path class="st2" d="M20.3,49.9c0,0-0.1,0-0.2,0c0,0-0.1,0-0.1,0l0.2,0C20.1,49.9,20.1,49.9,20.3,49.9z"/>
						<path class="st2" d="M18.1,47.6c-0.2-0.1-0.4-0.1-0.6-0.2c-0.2-0.1-0.4-0.1-0.5-0.2c-0.2-0.1-0.4-0.2-0.6-0.2
							c-0.2-0.1-0.4-0.2-0.6-0.3c0.2,0.1,0.4,0.1,0.6,0.2c0.2,0.1,0.4,0.2,0.6,0.2c0.2,0.1,0.4,0.2,0.6,0.2
							C17.8,47.5,17.9,47.5,18.1,47.6z"/>
						<path class="st2" d="M17.9,48.6c0,0-0.3-0.1-0.3-0.1L17.9,48.6z"/>
						<path class="st2" d="M17.5,48.8c0,0-0.4-0.1-0.4-0.1C17.2,48.7,17.3,48.7,17.5,48.8z"/>
						<path class="st2" d="M16.9,48.3c-0.1,0-0.2-0.1-0.4-0.1C16.4,48.1,16.7,48.2,16.9,48.3z"/>
						<path class="st2" d="M16.1,48.1C16.2,48.1,16.2,48.1,16.1,48.1c-0.2-0.1-0.3-0.1-0.3-0.1C16,48,16.1,48.1,16.1,48.1z"/>
						<path class="st2" d="M15.7,47.9c0,0-0.5-0.2-0.4-0.2C15.5,47.8,15.5,47.8,15.7,47.9z"/>
						<path class="st2" d="M15.9,46.7c0,0-0.4-0.2-0.4-0.1c-0.1-0.1-0.2-0.1-0.2-0.2C15.4,46.5,15.7,46.6,15.9,46.7z"/>
						<path class="st2" d="M15,46.6c0.2,0.1-0.2-0.1-0.4-0.2c0,0,0,0,0.1,0l0,0C14.8,46.5,15,46.6,15,46.6z"/>
						<path class="st2" d="M14.1,46c-0.1,0-0.1,0-0.4-0.2C13.9,45.9,13.9,46,14.1,46z"/>
						<path class="st2" d="M13.6,46.4c-0.1,0-0.2-0.1-0.3-0.2C13.2,46.2,13.5,46.4,13.6,46.4z"/>
						<path class="st2" d="M13.3,46.7c0,0-0.1-0.1-0.1,0c-0.1-0.1-0.1-0.1-0.3-0.2C13,46.5,13.3,46.7,13.3,46.7z"/>
						<path class="st2" d="M12.9,47c0,0-0.3-0.1-0.4-0.2C12.5,46.8,12.7,46.9,12.9,47z"/>
						<path class="st2" d="M12.4,43.2c-0.1,0-0.2-0.1-0.3-0.2c0,0,0.2,0.1,0.1,0C12.3,43,12.3,43.1,12.4,43.2z"/>
						<path class="st2" d="M11.1,45.1c-0.1,0-0.5-0.3-0.5-0.4C10.8,44.9,10.9,45,11.1,45.1z"/>
						<path class="st2" d="M11.7,42.4C11.7,42.4,11.7,42.4,11.7,42.4c-0.3-0.2-0.3-0.2-0.6-0.5C11.3,42,11.6,42.3,11.7,42.4z"/>
						<path class="st2" d="M11.4,42.4c-0.1,0-0.3-0.3-0.5-0.4C11,42.1,11.1,42.2,11.4,42.4z"/>
						<path class="st2" d="M11.1,41.9c0,0-0.3-0.2-0.2-0.2c0,0-0.1-0.1-0.1-0.1c-0.5-0.5-0.2-0.2,0,0c0,0,0,0,0,0
							C11,41.8,11,41.8,11.1,41.9z"/>
						<path class="st2" d="M9.4,44.1c0,0-0.2-0.1-0.3-0.2C9.2,44,9.3,44,9.4,44.1z"/>
						<path class="st2" d="M9.3,43.7c-0.1-0.1-0.3-0.3-0.4-0.4c0,0,0.1,0,0.1,0C9.1,43.5,9.2,43.6,9.3,43.7
							C9.3,43.7,9.4,43.7,9.3,43.7z"/>
						<path class="st2" d="M9.2,43.7c-0.3-0.3-0.7-0.5-0.9-0.8c0,0,0.2,0.2,0.3,0.2c0,0-0.2-0.2-0.3-0.3C8.4,43,9,43.5,9.2,43.7z"/>
						<path class="st2" d="M10.3,41.1c0,0-0.2-0.1-0.3-0.3C10,40.9,10.1,41,10.3,41.1z"/>
						<path class="st2" d="M9.9,40.8c0,0-0.1-0.1-0.2-0.2C9.8,40.6,9.8,40.6,9.9,40.8z"/>
						<path class="st2" d="M9.7,40.5c0,0-0.1-0.1-0.2-0.2c-0.1-0.1-0.2-0.2-0.2-0.2c0-0.1-0.1-0.1,0-0.1C9.4,40.3,9.4,40.3,9.7,40.5
							z"/>
						<path class="st2" d="M7.6,42.2L7.6,42.2c-0.1-0.1-0.2-0.2-0.4-0.4c0,0,0.2,0.3,0.2,0.2C7.4,42,7.5,42,7.6,42.2z"/>
						<path class="st2" d="M8.2,41.3C8.1,41.1,8,41,8,40.9C8.1,41.1,8.3,41.3,8.2,41.3z"/>
						<path class="st2" d="M7.2,41.7C7.2,41.6,7.1,41.6,7.2,41.7C7.1,41.6,7,41.5,7,41.5c-0.1-0.1,0,0-0.1-0.2
							C7,41.4,7.1,41.5,7.2,41.7z"/>
						<path class="st2" d="M7,41.7c0,0-0.3-0.3-0.2-0.3C6.8,41.4,6.9,41.5,7,41.7z"/>
						<path class="st2" d="M6.8,41.2c-0.1-0.1-0.2-0.2-0.3-0.4C6.6,40.9,6.7,41,6.8,41.2z"/>
						<path class="st2" d="M6.7,41.1c-0.1,0-0.1-0.1-0.2-0.3C6.5,40.8,6.7,41,6.7,41.1z"/>
						<path class="st2" d="M6.2,40.7c0.1,0.1-0.4-0.4-0.4-0.5C5.9,40.3,6.1,40.5,6.2,40.7z"/>
						<path class="st2" d="M8,38.7c0,0-0.1-0.1-0.2-0.2c0,0,0,0,0.1,0C8,38.6,8,38.6,8,38.7z"/>
						<path class="st2" d="M6.1,40.2c0,0.1-0.4-0.5-0.4-0.6C5.7,39.6,6,40.2,6.1,40.2z"/>
						<path class="st2" d="M5.3,40l-0.1-0.1C5.2,39.8,5.2,39.8,5.3,40C5.3,39.9,5.4,40.1,5.3,40z"/>
						<path class="st2" d="M7.4,38c0,0,0,0-0.1-0.2C7.3,37.8,7.3,37.8,7.4,38z"/>
						<path class="st2" d="M7,37.4c0,0-0.1-0.1-0.2-0.3C6.9,37.1,7,37.3,7,37.4z"/>
						<path class="st2" d="M4.9,38.7C4.9,38.6,4.9,38.7,4.9,38.7c-0.1-0.1-0.2-0.2-0.1-0.2L4.9,38.7z"/>
						<path class="st2" d="M4.5,37.9C4.5,37.9,4.5,37.9,4.5,37.9C4.6,38,4.6,38,4.5,37.9C4.7,38.1,4.6,38.1,4.5,37.9z"/>
						<path class="st2" d="M4.3,38.2c-0.2-0.3-0.2-0.4-0.4-0.7C3.9,37.4,4.3,38.1,4.3,38.2z"/>
						<path class="st2" d="M4.3,37.6c0,0-0.1-0.2-0.2-0.3c0,0,0.1,0.1,0-0.1c0,0,0.1,0.2,0,0C4.3,37.4,4.2,37.4,4.3,37.6z"/>
						<path class="st2" d="M4.3,37.6c-0.1-0.1-0.3-0.5-0.4-0.7C4,37.2,4.1,37.3,4.3,37.6z"/>
						<path class="st2" d="M6.2,35.9c-0.1-0.1-0.2-0.3-0.3-0.5C6,35.5,6.1,35.8,6.2,35.9z"/>
						<path class="st2" d="M3.1,35.9C3.2,36,3.1,36,3.1,35.9C3.1,35.8,3,35.7,3,35.7c-0.1-0.3-0.2-0.5-0.4-0.8c0,0,0,0.1,0,0
							C2.8,35.4,3,35.6,3.1,35.9z"/>
						<path class="st2" d="M3.2,35.4c0-0.1-0.1-0.2-0.2-0.3c0-0.1-0.1-0.2,0-0.1C3,35.1,3.1,35.2,3.2,35.4z"/>
						<path class="st2" d="M2.6,35.1c0,0.1-0.2-0.4-0.1-0.3L2.6,35.1z"/>
						<path class="st2" d="M2.9,34.8c0,0.1-0.2-0.4-0.2-0.6C2.7,34.3,2.8,34.5,2.9,34.8z"/>
						<path class="st2" d="M2.9,34.7c-0.1-0.3-0.3-0.8-0.4-1C2.6,33.9,2.7,34.3,2.9,34.7z"/>
						<path class="st2" d="M2.6,34.8c0,0-0.1-0.3-0.1-0.3c0-0.1,0-0.1,0-0.1C2.5,34.6,2.5,34.7,2.6,34.8z"/>
						<path class="st2" d="M2.7,34.5c0,0-0.1-0.2-0.1-0.3c0,0,0,0,0,0C2.7,34.3,2.7,34.3,2.7,34.5z"/>
						<path class="st2" d="M2.5,34.1c0,0-0.1-0.2-0.1-0.3C2.4,33.9,2.5,34,2.5,34.1z"/>
						<path class="st2" d="M2.4,33.6c-0.1-0.2-0.2-0.5-0.2-0.7c0,0.1,0.1,0.2,0.1,0.1C2.2,33.1,2.3,33.3,2.4,33.6z"/>
						<path class="st2" d="M3.2,31.7C3.2,31.8,3.2,31.8,3.2,31.7c-0.1-0.1,0-0.1-0.1-0.2C3.2,31.5,3.2,31.8,3.2,31.7z"/>
						<path class="st2" d="M1.9,31.9c0,0.1-0.1-0.2-0.1-0.5c-0.1-0.3-0.1-0.5-0.1-0.4c0,0.1,0,0.1,0,0.1C1.7,31.3,1.8,31.7,1.9,31.9
							z"/>
						<path class="st2" d="M3,30.7c0-0.1-0.1-0.2-0.1-0.3l0,0C3,30.5,3,30.6,3,30.7z"/>
						<path class="st2" d="M2.8,30.1c0,0-0.1-0.4-0.1-0.6C2.7,29.6,2.7,29.8,2.8,30.1z"/>
						<path class="st2" d="M3.9,29.1c0-0.2,0-0.2,0-0.3C3.9,28.9,4,29.1,3.9,29.1z"/>
						<path class="st2" d="M2.7,29c0-0.1-0.1-0.1-0.1-0.4C2.6,28.7,2.7,28.8,2.7,29z"/>
						<path class="st2" d="M1.2,28.8c0,0,0-0.3-0.1-0.4C1.2,28.4,1.2,28.6,1.2,28.8z"/>
						<path class="st2" d="M2.5,28.2c0,0,0-0.2,0-0.2c0,0,0-0.1,0-0.1c0,0,0,0,0-0.1C2.5,27.9,2.5,28.1,2.5,28.2z"/>
						<path class="st2" d="M3.7,26.9L3.7,26.9c0-0.1-0.1-1.1,0-0.4C3.7,26.7,3.7,26.7,3.7,26.9z"/>
						<path class="st2" d="M3.9,26.7c0-0.1,0-0.3,0-0.4C3.9,26.3,3.9,26.6,3.9,26.7z"/>
						<path class="st2" d="M2.4,25.8c0,0,0-0.1,0-0.3c0-0.2,0-0.3,0-0.4C2.4,25.2,2.3,25.7,2.4,25.8z"/>
						<path class="st2" d="M3.9,25.4c0-0.1,0-0.2,0-0.3C3.9,25.2,3.9,25.3,3.9,25.4z"/>
						<path class="st2" d="M3.9,25L3.9,25c0-0.1,0-0.2,0-0.2C3.9,24.9,3.9,24.9,3.9,25z"/>
						<path class="st2" d="M1,24.4c0,0,0-0.1,0-0.4C1,24.1,1,24.3,1,24.4z"/>
						<path class="st2" d="M3.7,24c0,0.2,0-0.2,0-0.2c0-0.1,0-0.1,0-0.1C3.7,23.9,3.7,24,3.7,24z"/>
						<path class="st2" d="M4,23.9c0,0,0-0.2,0-0.3h0C4,23.7,4,23.7,4,23.9z"/>
						<path class="st2" d="M3.9,23.6c0,0.2,0-0.4,0-0.3C3.9,23.1,3.9,23.4,3.9,23.6z"/>
						<path class="st2" d="M4.1,23c0,0,0-0.1,0-0.1c0-0.1,0,0,0,0c0,0,0-0.1,0-0.2C4.1,22.7,4.1,22.9,4.1,23z"/>
						<path class="st2" d="M4,22.3L4,22.3c0-0.1,0-0.2,0-0.4C4.1,21.9,4.1,22.1,4,22.3z"/>
						<path class="st2" d="M4.4,21c0-0.2,0.1-0.3,0.1-0.5C4.5,20.5,4.5,20.7,4.4,21z"/>
						<path class="st2" d="M1.4,20.8c0-0.1,0.1-0.5,0.2-0.8c0,0-0.1,0.3,0,0.2C1.5,20.4,1.4,20.5,1.4,20.8z"/>
						<path class="st2" d="M6.2,16L6.2,16c0,0,0.1-0.3,0.1-0.1c0-0.1,0.1-0.1,0.1-0.2C6.3,15.7,6.2,15.8,6.2,16z"/>
						<path class="st2" d="M7.6,13.5c0,0,0.1-0.2,0.2-0.3C7.7,13.3,7.7,13.4,7.6,13.5z"/>
						<path class="st2" d="M4.8,11.8c0,0,0.1-0.2,0.2-0.3c0,0-0.1,0.1-0.1,0.1c0-0.1,0.2-0.3,0.2-0.2C4.9,11.7,4.9,11.7,4.8,11.8z"
							/>
						<path class="st2" d="M8,12.6C8,12.6,8,12.6,8,12.6c0-0.1,0.1-0.1,0.2-0.3C8.2,12.4,8.1,12.5,8,12.6z"/>
						<path class="st2" d="M8.2,12.5c0-0.1,0.3-0.4,0.3-0.4C8.5,12.2,8.2,12.5,8.2,12.5z"/>
						<path class="st2" d="M8.2,12.3c0.1-0.1,0.2-0.3,0.4-0.5C8.5,12,8.3,12.2,8.2,12.3C8.3,12.3,8.2,12.3,8.2,12.3z"/>
						<path class="st2" d="M10.1,10.5c0.1-0.1,0.2-0.2,0.3-0.3C10.5,10.2,10.2,10.4,10.1,10.5z"/>
						<path class="st2" d="M10.1,10.5C10,10.5,10.2,10.3,10.1,10.5c0.1-0.2,0.1-0.1,0.2-0.2C10.2,10.3,10.2,10.3,10.1,10.5z"/>
						<path class="st2" d="M10.3,10.4c0,0,0.2-0.2,0.2-0.2C10.4,10.3,10.3,10.4,10.3,10.4z"/>
						<path class="st2" d="M10.8,9.8c0-0.1,0.2-0.2,0.3-0.3c0.1-0.1,0.2-0.2,0.3-0.2c0,0-0.1,0.1-0.2,0.2c0.1-0.1,0,0-0.1,0.1
							c-0.1,0.1-0.2,0.2-0.1,0.1C10.8,9.7,10.9,9.7,10.8,9.8z"/>
						<path class="st2" d="M12.2,8.5L12.2,8.5c0.1-0.1,0.1,0,0.2-0.2C12.4,8.4,12.2,8.5,12.2,8.5z"/>
						<path class="st2" d="M13,8c0-0.1,0.2-0.2,0.4-0.3C13.4,7.7,13.1,7.9,13,8z"/>
						<path class="st2" d="M13.2,8L13.2,8c0,0,0.3-0.2,0.3-0.2L13.2,8z"/>
						<path class="st2" d="M13.6,3.7c0,0,0.2-0.1,0.5-0.3c0,0,0,0,0.1,0C14.1,3.5,13.8,3.6,13.6,3.7z"/>
						<path class="st2" d="M16.1,6.4c0.1,0,0.3-0.1,0.4-0.2C16.4,6.3,16.2,6.4,16.1,6.4z"/>
						<path class="st2" d="M19.4,1.4c0,0,0.2-0.1,0.3-0.1C19.8,1.4,19.6,1.4,19.4,1.4z"/>
						<path class="st2" d="M25.1,0.6C25.2,0.6,25.3,0.6,25.1,0.6c0.3,0,0.7,0,1,0C25.8,0.6,25.6,0.6,25.1,0.6z"/>
						<path class="st2" d="M25.3,0.7c0.1,0,0.4,0,0.5,0C25.7,0.7,25.5,0.7,25.3,0.7z"/>
						<path class="st2" d="M26.2,0.7c0,0-0.1,0-0.2,0c0.1,0,0.4,0,0.4,0c0.1,0,0,0-0.1,0c0.1,0,0,0,0.1,0c-0.2,0-0.4,0-0.5,0
							c-0.1,0-0.1,0-0.1,0C26,0.6,26.1,0.7,26.2,0.7z"/>
						<path class="st2" d="M26.5,0.6c0.1,0,0.3,0,0.4,0c0.2,0-0.1,0,0.2,0C26.9,0.6,26.8,0.6,26.5,0.6z"/>
						<path class="st2" d="M27.2,4.3c0,0,0.2,0,0.4,0C27.7,4.3,27.3,4.3,27.2,4.3z"/>
						<path class="st2" d="M28.4,0.8c-0.1,0,0.5,0,0.7,0.1C28.9,0.8,28.7,0.8,28.4,0.8z"/>
						<path class="st2" d="M29.6,1c0.1,0,0.2,0,0.3,0.1C30,1.1,29.6,1,29.6,1z"/>
						<path class="st2" d="M30.2,1.2c0.1,0,0.2,0,0.4,0.1C30.6,1.3,30.3,1.2,30.2,1.2z"/>
						<path class="st2" d="M31,5c0.2,0.1,0.2,0.1,0.4,0.1C31.4,5.2,31,5.1,31,5z"/>
						<path class="st2" d="M31.5,2.1L31.5,2.1c0.1,0,0.3,0.1,0.5,0.1C31.8,2.2,31.7,2.2,31.5,2.1z"/>
						<path class="st2" d="M33.7,2.6c0,0,0.1,0,0.2,0.1c0,0,0,0,0.1,0C34,2.7,33.8,2.6,33.7,2.6z"/>
						<path class="st2" d="M33.9,2.6c0.1,0,0.2,0.1,0.4,0.1C34.3,2.8,34.1,2.7,33.9,2.6C34,2.6,33.9,2.6,33.9,2.6z"/>
						<path class="st2" d="M34.6,2.7c0.2,0.1,0.3,0.1,0.5,0.2c0,0,0,0,0.1,0.1c0,0-0.3-0.1-0.2-0.1C34.9,2.8,34.9,2.8,34.6,2.7z"/>
						<path class="st2" d="M36.3,4.2c0,0,0.4,0.2,0.5,0.2c0,0-0.2-0.1-0.4-0.2c0.1,0,0.5,0.3,0.5,0.2c0.1,0.1,0.2,0.1,0.4,0.2
							c0,0-0.2-0.1-0.3-0.2c0.2,0.1-0.2-0.1,0,0.1C36.9,4.5,36.7,4.4,36.3,4.2z"/>
						<path class="st2" d="M36.2,7.2c0,0,0.2,0.1,0.3,0.1c0.1,0.1-0.2,0,0,0.1C36.3,7.3,36.3,7.3,36.2,7.2z"/>
						<path class="st2" d="M37.5,7.9C37.7,8,37.4,7.8,37.8,8l0,0C37.6,8,37.6,8,37.5,7.9z"/>
						<path class="st2" d="M37.7,8.1c0.3,0.2,0.3,0.2,0.6,0.4c0,0,0,0,0,0c-0.1-0.1-0.2-0.2-0.4-0.2C37.9,8.1,38.1,8.2,37.7,8.1
							c0.3,0,0.4,0.2,0.7,0.4c0,0,0,0.1,0.1,0.2c-0.1-0.1-0.2-0.1-0.3-0.2C38.1,8.4,38,8.3,38,8.3C37.9,8.2,37.9,8.2,37.7,8.1z"/>
						<path class="st2" d="M38.3,8.3c0.3,0.2,0,0,0.3,0.3c-0.1-0.1-0.1-0.1-0.2-0.1C38.4,8.4,38.2,8.3,38.3,8.3z"/>
						<path class="st2" d="M41,6.9C41.2,7,41.1,7,41,6.9c0.1,0,0.1,0,0.2,0.1C41.2,7,41.3,7.1,41,6.9z"/>
						<path class="st2" d="M41.6,7c0.1,0.1,0.3,0.2,0.2,0.2C41.7,7.1,41.8,7.1,41.6,7z"/>
						<path class="st2" d="M43,8.1c0,0,0.4,0.4,0.4,0.4c0.1,0.1,0.1,0.1,0.1,0.1c0.1,0.1,0.1,0.2,0.2,0.3c-0.1-0.1-0.5-0.5-0.4-0.4
							C43.3,8.4,43.2,8.3,43,8.1z"/>
						<path class="st2" d="M43.2,9.3c0.1,0.1,0.3,0.3,0.3,0.4C43.5,9.6,43.4,9.4,43.2,9.3z"/>
						<path class="st2" d="M44.2,10.7c0.1,0.1,0.2,0.2,0.3,0.4C44.6,11.1,44.4,10.9,44.2,10.7z"/>
						<path class="st2" d="M43.9,11.6L43.9,11.6c0.1,0.1,0.2,0.2,0.2,0.2C44.1,11.9,43.9,11.7,43.9,11.6z"/>
						<path class="st2" d="M44,11.9c0,0,0.1,0.1,0.2,0.2c0,0,0.1,0.2,0,0.1C44.1,12.1,44.1,12.1,44,11.9z"/>
						<path class="st2" d="M43.2,13.8c0.1,0.2,0.2,0.3,0.3,0.4c0,0-0.1-0.1-0.1-0.1c0-0.1-0.1-0.1-0.1-0.1
							C43.3,13.9,43.2,13.8,43.2,13.8z"/>
						<path class="st2" d="M43.3,13.9c0.2,0.3,0.5,0.7,0.5,1C43.7,14.7,43.3,14.1,43.3,13.9z"/>
						<path class="st2" d="M45.5,13.2c0.1,0.1,0.2,0.3,0.2,0.4C45.6,13.4,45.6,13.3,45.5,13.2z"/>
						<path class="st2" d="M44.2,15.2c0,0,0.1,0,0.2,0.2c0,0,0,0-0.1,0C44.3,15.3,44.2,15.3,44.2,15.2z"/>
						<path class="st2" d="M45.8,14.1c0.1,0.1,0.2,0.2,0.2,0.4c0.1,0.1,0.1,0.3,0.2,0.4c0.1,0.3,0.2,0.5,0.3,0.7
							c-0.1-0.2-0.2-0.4-0.3-0.7C46.1,14.7,46,14.4,45.8,14.1z"/>
						<path class="st2" d="M46.6,16.2c0,0,0.1,0.2,0.2,0.4c0,0,0-0.1-0.1-0.2c0.1,0.1,0.1,0.3,0.1,0.4c0,0-0.1-0.1-0.1-0.1
							C46.7,16.5,46.7,16.4,46.6,16.2z"/>
						<path class="st2" d="M45.9,18.1c0.1,0.2,0.2,0.6,0.2,0.8C46,18.7,46,18.4,45.9,18.1z"/>
						<path class="st2" d="M47.3,25.2c0,0,0,0.1,0,0.1c0,0.1,0,0.3,0,0.2C47.3,25.4,47.3,25.3,47.3,25.2z"/>
						<path class="st2" d="M48.6,26.8c0-0.1,0-0.2,0-0.3c0,0,0,0,0-0.1c0,0.1,0,0.1,0,0.2C48.7,26.6,48.6,27.1,48.6,26.8
							C48.6,26.8,48.6,26.8,48.6,26.8z"/>
						<path class="st2" d="M45.6,35.9c0,0.1-0.1,0.3-0.2,0.4c-0.1,0.2-0.2,0.3-0.2,0.3c0.1-0.1,0.1-0.2,0.2-0.3
							C45.5,36.1,45.5,36,45.6,35.9z"/>
						<path class="st2" d="M44.2,38.4c0.1-0.1,0.1-0.1,0.2-0.3c0,0.1,0,0.1,0.1-0.1C44.5,38.1,44.4,38.3,44.2,38.4
							C44.3,38.4,44.2,38.5,44.2,38.4c0-0.1,0,0-0.1,0.1C44.1,38.7,44.3,38.3,44.2,38.4z"/>
						<path class="st2" d="M42.3,40.5c0,0,0,0.1-0.1,0.2c-0.1,0.1-0.2,0.2-0.2,0.2C42.3,40.5,42.1,40.7,42.3,40.5z"/>
						<path class="st2" d="M41.9,41.2c0,0,0.2-0.3,0.3-0.3c0,0-0.1,0.1-0.1,0.1C42.2,40.9,42.1,41,41.9,41.2z"/>
						<path class="st2" d="M36.3,45.1c-0.2,0.1-0.5,0.2-0.7,0.4c-0.2,0.1-0.5,0.2-0.6,0.3c-0.1,0-0.4,0.1-0.6,0.2
							c-0.2,0.1-0.5,0.2-0.5,0.2c-0.2,0.1-0.1,0.1-0.3,0.1c-0.2,0.1-0.3,0.1-0.5,0.1c-0.1,0.1-0.5,0.2-0.5,0.2c0.1,0,0,0,0.1,0
							c0.1,0,0.3-0.1,0.5-0.1c0.2-0.1,0.4-0.1,0.5-0.2c-0.4,0.2-0.9,0.3-1.2,0.4c0.1,0,0.1,0,0.2,0c-0.2,0-0.2,0.1-0.3,0.1
							c0,0,0.1-0.1-0.1,0c-0.1,0-0.1,0-0.2,0.1c-0.4,0.1-0.9,0.2-1.2,0.3c-0.3,0-0.6,0.1-1,0.2c-0.3,0.1-0.6,0.1-0.7,0.1
							c-0.4,0.1-0.9,0.1-1.3,0.2c-0.1,0,0,0-0.2,0c-0.4,0-1.1,0.1-1.6,0.1c0,0,0.5,0,0.4,0c-0.4,0-0.7,0-1.1,0c-0.3,0-0.6,0-0.9,0
							c0,0,0.2,0,0.2,0c-0.2,0-0.5,0-0.8,0c0,0-0.1,0-0.1,0c-0.2,0-0.4,0-0.6,0c-0.2,0-0.4-0.1-0.6-0.1c-0.1,0,0.1,0,0,0l-0.3,0
							c0.1,0,0.1,0-0.1,0c-0.2,0-0.5-0.1-0.7-0.1c-0.3,0-0.5-0.1-0.7-0.1c0.2,0-0.1,0-0.2,0c0,0,0,0,0,0c-0.2,0-0.5-0.1-0.7-0.2
							c-0.3-0.1-0.6-0.2-0.8-0.2c-0.5-0.2-1-0.3-1.2-0.4c0.1,0-0.2,0-0.4-0.1c0,0,0.1,0,0.1,0c-1.2-0.5-2.5-1.1-3.8-1.9
							c0,0,0.1,0.1,0.1,0.1c-0.3-0.2-0.5-0.3-0.7-0.5c-0.2-0.1-0.4-0.3-0.6-0.4c-0.4-0.3-1.2-1-1.4-1.2c0,0,0.2,0.2,0.1,0.1
							c-0.4-0.4-0.8-0.7-1.4-1.3c0-0.1-0.4-0.5-0.5-0.5c0.1,0.1,0.2,0.2,0.2,0.2c0,0.1,0.2,0.2,0.1,0.2c-0.2-0.2-0.8-0.8-0.5-0.5
							C8.6,39.8,8.5,39.6,8,39c-0.1-0.1-0.7-0.9-0.6-0.9C7.3,38,7.1,37.7,7,37.5c0.3,0.4,0.5,0.7,0.6,0.9c-0.1-0.1-0.2-0.3-0.2-0.3
							c-0.2-0.2-0.3-0.4-0.4-0.6c0,0-0.1-0.2-0.1-0.2c-0.1,0,0.1,0.2,0,0.1c-0.1-0.1-0.2-0.3-0.3-0.5c-0.1-0.2-0.2-0.3-0.3-0.5
							c0.1,0.1,0.1,0.2,0.1,0.2C6.3,36.3,6.2,36,6.1,36c0,0.1,0.2,0.3,0.2,0.3C6.1,36,6,35.7,5.9,35.5c0,0.1,0.2,0.3,0.1,0.2
							c-0.1-0.2-0.2-0.3-0.2-0.4c-0.1-0.3-0.2-0.5-0.3-0.7c-0.1-0.2-0.2-0.4-0.3-0.7c0-0.1-0.2-0.4-0.3-0.6c0,0,0,0,0-0.1
							c0,0,0.1,0.2,0.1,0.1c-0.1-0.2-0.2-0.7-0.3-1c-0.1-0.1-0.3-0.7-0.2-0.8c0.1,0.2,0.1,0.4,0.1,0.5c0,0.1,0.1,0.3,0.1,0.4
							c0,0,0.1,0.3,0.2,0.5c0.1,0.2,0.2,0.5,0.2,0.4c0,0,0,0.1,0.1,0.2c0,0.1,0.1,0.2,0.2,0.3c-0.1,0,0.1,0.3,0.1,0.4
							c0.1,0.2,0.1,0.1,0.1,0.2c0.1,0.1,0.1,0.2,0.1,0.4c0.6,1.1,1.2,2.3,1.9,3.3c-0.1-0.1-0.2-0.2-0.2-0.4
							c-0.1-0.1-0.1-0.2-0.2-0.3c0.1,0.1,0.1,0.2,0.2,0.3c0-0.1-0.1-0.2-0.2-0.3c0.2,0.2,0.2,0.4,0.3,0.5c-0.2-0.3,0,0,0,0
							c-0.1-0.1-0.2-0.2-0.2-0.4c0,0,0,0.1,0,0.1c-0.1-0.1,0-0.1-0.1-0.2c-0.5-0.6-1-1.6-1.4-2.4c0-0.1-0.1-0.2-0.1-0.2
							c-0.1-0.2-0.1-0.3-0.1-0.4c-0.1-0.1-0.2-0.3-0.2-0.5c-0.1-0.2-0.2-0.4-0.2-0.6c-0.1-0.3-0.4-1-0.5-1.4c0,0,0,0.1,0,0.1
							c-0.1-0.2-0.1-0.3-0.1-0.4c0,0.1,0,0.1,0.1,0.3c-0.1-0.4-0.3-1-0.4-1.5c0-0.1-0.1-0.2-0.1-0.3c0-0.1-0.1-0.4-0.1-0.6
							c0,0-0.1-0.1-0.1-0.4c0,0.3,0.1,0.8,0.2,1.1c-0.1-0.2,0,0.1-0.1-0.1c0-0.2-0.2-1-0.2-1.2c0,0.1,0,0.2,0,0.2
							c0-0.2-0.1-0.5-0.1-0.6c0,0.3,0,0.2,0,0.4c0-0.1,0-0.2,0-0.4c0,0,0,0.2,0,0.1c0-0.1,0-0.1,0-0.1c0-0.1-0.1-0.6,0-0.4
							c0-0.2-0.1-0.4-0.1-0.7c0-0.2,0-0.4,0-0.5c0-0.3,0-0.6-0.1-0.9c0-0.1,0-0.3,0-0.4c0-0.2,0-0.3,0-0.5c0,0,0,0,0-0.1
							c0,0,0-0.2,0-0.3c0,0,0-0.1,0-0.2c0,0.1,0,0.1,0,0.1c0-0.1,0-0.2,0-0.3c0,0,0,0.2,0,0.1c0-0.1,0-0.2,0-0.3
							c0-0.2,0-0.5,0.1-0.9c0,0,0,0.1,0,0.1c0-0.2,0-0.2,0-0.4c0,0,0,0.1,0,0.1c0-0.3,0.1-0.9,0.1-1.1c0,0.1,0,0.1,0,0.1
							C4,21.7,4,21.3,4.1,20.9c0.1-0.4,0.2-0.8,0.3-1.2c0,0,0,0.1,0,0c0.1-0.2,0.2-0.7,0.3-1.2C4.8,18.2,5,17.8,5,18
							c0,0,0-0.1,0-0.1C5,18,4.9,18,4.9,18c0.1-0.2,0.2-0.4,0.2-0.7c0,0,0-0.1,0.1-0.1c0.1-0.4,0.3-0.6,0.4-1c0,0-0.1,0.2,0,0.2
							c0-0.1,0.1-0.3,0.2-0.4c0.1-0.2,0.2-0.3,0.3-0.5c0.2-0.4,0.4-0.7,0.6-1.1c0,0-0.2,0.3-0.1,0.2c0.1-0.1,0.1-0.3,0.2-0.4
							C6.9,14,7,13.8,7.2,13.7c0.2-0.4,0.5-0.7,0.7-1C7.8,12.8,8,12.5,8,12.5c-0.2,0.4-0.6,0.8-0.9,1.3c0,0,0,0.1,0.1,0
							c0-0.1,0.1-0.3,0.3-0.5c0.1-0.2,0.3-0.4,0.4-0.6c0,0,0.1-0.1,0.1-0.1C8,12.5,8.2,12.2,8.4,12c0.2-0.3,0.4-0.5,0.7-0.8
							c0.1-0.1,0.3-0.4,0.5-0.6c-0.1,0.1,0,0.1-0.2,0.2c-0.1,0,0.1-0.1-0.1,0c0,0.1-0.5,0.6-0.6,0.7c0.1-0.1,0,0.1,0,0
							C9,11.4,9.1,11.2,9.3,11c0.1-0.1,0.4-0.4,0.2-0.2c0.2-0.1,0.4-0.4,0.6-0.6c-0.4,0.4-0.5,0.6-0.8,0.9c0.2-0.2,0.3-0.3,0.4-0.5
							c0,0,0,0,0,0c0.5-0.6,0.9-0.9,1.4-1.3c0,0,0,0,0,0c0.3-0.2,0.7-0.6,1-0.8C12,8.6,12,8.6,12,8.6c0.2-0.1,0.4-0.3,0.4-0.3
							c0.1-0.1,0-0.1,0.1-0.1c0.1-0.1,0.2-0.1,0.4-0.2c-0.2,0.1,0.6-0.4,0.4-0.3c0.3-0.2,0.4-0.3,0.6-0.4c0.1-0.1,0.1-0.1,0.2-0.2
							c-0.1,0,0-0.1,0-0.1c-0.2,0.2-0.4,0.3-0.5,0.3c0,0-0.4,0.3-0.5,0.3c-0.3,0.2-0.7,0.5-1.2,0.9c0,0-0.1,0.1-0.2,0.1
							c0.1-0.1,0.3-0.2,0.4-0.3c0,0.1,0,0,0.1,0c0-0.1,0.3-0.2,0.3-0.3c0-0.1-0.2,0.1-0.2,0.1c0.2-0.1,0.4-0.3,0.5-0.4
							c0.1,0,0.4-0.3,0.6-0.4c0.1,0,0.1,0,0,0C13.8,7.2,14,7,14.2,6.9c0.2-0.1,0.4-0.2,0.6-0.3c0-0.1,0.2-0.1,0.3-0.2
							c0.1-0.1,0.3-0.1,0.4-0.2c-0.1,0-0.1,0.1-0.2,0.1c0.1-0.1,0.1-0.1,0.3-0.2c0,0,0.2-0.1,0.3-0.1c0,0-0.2,0.1,0,0
							c0.4-0.2,0.6-0.3,0.9-0.4c0.1,0,0,0,0.3-0.1c0,0,0,0,0,0c-0.1,0-0.2,0.1-0.2,0.1c0.3-0.1,0.5-0.2,0.7-0.3c0.1,0,0.2-0.1,0.2,0
							c-0.1,0,0,0-0.2,0.1c0.1,0-0.2,0.1-0.3,0.2c0.3-0.1,0.5-0.1,0.7-0.2C18.1,5.1,18.4,5,18.6,5c0.2-0.1,0.4-0.1,0.7-0.2
							c0,0-0.1,0-0.1,0c0.3-0.1,0.4-0.2,0.5-0.1c-0.2,0.1-0.6,0.1-0.7,0.2c0.1,0,0.2,0,0.2-0.1c-0.2,0.1,0,0-0.4,0.2
							c0,0-0.1,0.1-0.1,0.1C18.7,5.1,19,5,19,5c-0.4,0.1-0.6,0.2-0.9,0.3c0.1,0,0.3-0.1,0.2-0.1c-0.3,0.1,0.2-0.1-0.1,0
							c-0.1,0.1-0.3,0.1-0.5,0.2c0.1-0.1-0.2,0.1-0.3,0.1c-0.1,0-0.1,0.1-0.2,0.1c-0.2,0.1-0.5,0.2-0.8,0.3C16.4,6,16.3,6,16.2,6.1
							c-0.1,0.1-0.2,0.1-0.3,0.2c0.1,0,0.2-0.1,0.2-0.1c0,0-0.1,0-0.1,0.1c-0.2,0.1-0.5,0.2-0.5,0.2c-0.2,0.1-0.2,0.1-0.4,0.2
							c0,0,0,0-0.2,0.2c0,0,0.1-0.1,0.1-0.1c-0.2,0.1-0.4,0.3-0.7,0.4c-0.2,0.1-0.4,0.3-0.6,0.3c-0.3,0.2-0.6,0.5-1,0.7
							c-0.4,0.2-0.7,0.5-0.9,0.7c0,0-0.1,0.1-0.1,0.1c0.1-0.1,0.1-0.1,0.1-0.1C11.7,9,11.7,9,11.4,9.2c0.1,0,0.4-0.3,0.5-0.4
							c-0.1,0.1-0.3,0.3-0.4,0.4c0.1,0,0.4-0.3,0.5-0.4c0,0,0,0,0.1-0.1c0.1,0,0.1-0.1,0.2-0.1c0.1-0.1,0.3-0.3,0.5-0.4
							C12.9,8.1,13,8,13.1,8c-0.2,0.1-0.2,0.2-0.2,0.2c0.4-0.3,0.6-0.5,1-0.7c0.2-0.1,0.3-0.2,0.5-0.3c0.2-0.1,0.4-0.2,0.6-0.3
							c0,0,0,0,0,0c0.1-0.1,0.3-0.2,0.5-0.3c0.2-0.1,0.3-0.2,0.5-0.3c0,0-0.1,0-0.1,0.1c0.2-0.1,0.3-0.2,0.5-0.3
							c-0.1,0.1,0.2-0.1,0.2-0.1c0,0,0,0,0.1-0.1c0.1,0-0.1,0,0.1,0c0.2-0.1,0.5-0.3,0.7-0.3c0,0-0.2,0.1-0.1,0.1
							c0.1-0.1,0.4-0.2,0.7-0.3c0.3-0.1,0.6-0.2,0.7-0.2c-0.2,0,0.1-0.1,0.2-0.1c0.1,0-0.2,0-0.1,0c0.1,0,0.4-0.1,0.5-0.1
							C19.4,5,19.1,5,19.2,5c0.2,0,0.5-0.1,0.7-0.2c-0.5,0.2-1.4,0.4-2,0.7c0,0,0.2-0.1,0.3-0.1c0.1,0,0.2-0.1,0.3-0.1
							c-0.1,0-0.2,0.1-0.3,0.1c-0.1,0.1-0.3,0.1-0.4,0.2c0.1,0,0.1,0,0.1,0c0,0-0.1,0-0.1,0c-0.2,0.1-0.4,0.1-0.5,0.2
							C17,5.9,16.9,6,16.9,6c-0.2,0.1-0.4,0.1-0.6,0.3c0.3-0.1,0.5-0.2,0.6-0.2c0,0-0.3,0.2-0.2,0.1C17,6,17.1,5.9,17.5,5.8
							c0,0-0.2,0.1-0.2,0.1c0.1-0.1,0.4-0.2,0.4-0.1c-0.1,0.1,0.1,0,0.1,0c-0.1,0,0,0,0.1-0.1c0,0,0.1,0,0.2-0.1c0,0,0,0,0.1,0
							c0.1-0.1,0.2-0.1,0.3-0.1c0.6-0.2,1.5-0.5,2.2-0.6c0,0-0.1,0,0,0c0.1-0.1,0.4-0.1,0.4-0.1c0.1,0,0.3-0.1,0.4-0.1
							c0,0-0.2,0.1-0.3,0c0,0,0.1,0,0.1,0c0.1,0,0.2,0,0.3-0.1c0.1,0,0.1,0,0.2,0c0.3-0.1,0.5-0.1,0.8-0.1c0,0,0,0,0,0
							c0.1,0,0.3,0,0.4,0c-0.1,0-0.3,0.1-0.4,0.1c0.2,0,0.6-0.1,0.7-0.1c-0.1,0-0.2,0-0.3,0c0.2,0,0.3-0.1,0.4-0.1c0,0,0.1,0,0.2,0
							c-0.1,0,0.1,0,0.2,0c0,0-0.1,0-0.1,0c0.2,0,0.1,0,0.2,0c0.3,0,0.3,0,0.5,0c-0.1,0-0.3,0-0.4,0.1c0.3,0,0.3,0,0.6-0.1
							c0,0-0.1,0,0.1,0c0.2,0,0.4,0,0.7-0.1c0.3,0,0.5,0,0.7,0c-0.1,0-0.2,0-0.2,0c0,0,0.1,0,0.2,0c0,0,0.2,0,0.2,0c0.3,0,0.6,0,1,0
							c0,0,0.1,0.1,0.3,0c-0.1,0-0.1,0-0.1,0c0.2,0,0.4,0,0.7,0c0,0,0.5,0.1,0.7,0.1c0.1,0-0.1,0,0.1,0c0.3,0,0.5,0.1,0.7,0.1
							c0.2,0,0.5,0.1,0.8,0.2c-0.3-0.1,0.3,0.1,0.1,0c0.2,0,0.6,0.1,0.8,0.2c-0.1,0-0.1,0,0,0c0.1,0,0,0,0.2,0.1c0,0,0,0,0.1,0.1
							c0.1,0,0,0,0.1,0c0.2,0.1,0.2,0.1,0.3,0.1c-0.1,0-0.1,0-0.2,0c0.2,0,0.1,0,0,0c0.2,0.1,0.3,0.1,0.4,0.1c0,0-0.1-0.1,0-0.1
							c-0.2-0.1-0.1-0.1-0.2-0.1c0.4,0.1,0.8,0.3,1.2,0.4c0.4,0.2,0.8,0.3,1.1,0.5c-0.1,0-0.1,0,0,0.1c0.2,0,0.5,0.1,0.8,0.3
							c0.3,0.2,0.7,0.4,1,0.5c0.1,0,0-0.1,0-0.1c0.4,0.2,0.4,0.2,0.6,0.3c0.3,0.1,0.4,0.2,0.7,0.4c0,0,0,0,0.1,0.1
							c0.1,0.1-0.1-0.1,0-0.1c0.3,0.2,0.4,0.2,0.7,0.4c-0.1-0.1,0,0,0.1,0c0,0,0.1,0.1,0.1,0.1c-0.1,0,0,0,0.1,0.1
							c-0.1-0.1,0.2,0.2,0.3,0.2C38.2,8.2,38,8,38.1,8c-0.2-0.1-0.2-0.2-0.3-0.2c0.1,0,0.1,0.1,0.2,0.1c0,0-0.1-0.1-0.2-0.2
							c0.2,0.1,0.7,0.4,0.9,0.7c0.2,0.1,0.4,0.2,0.5,0.4c-0.1,0-0.2-0.1-0.3-0.2c0.1,0.1,0.2,0.1,0.3,0.2c0.1,0.1,0.2,0.1,0.2,0.2
							c-0.2-0.1-0.4-0.3-0.7-0.5c-0.2-0.2-0.5-0.4-0.8-0.6c0.2,0.1,0.4,0.3,0.6,0.5c0.2,0.2,0.5,0.4,0.7,0.5
							c0.2,0.2,0.5,0.5,0.8,0.7c0.1,0.1,0.1,0.1,0.2,0.2c0.1,0.1,0.4,0.3,0.6,0.5c0.2,0.2,0.3,0.4,0.3,0.4c0.1,0.1,0,0,0.1,0.1
							c0.1,0.1,0.1,0.1,0.1,0.1c-0.2-0.2-0.4-0.4-0.7-0.6c-0.2-0.2-0.5-0.4-0.7-0.6c0.1,0.1,0.2,0.3,0.2,0.3c0.8,0.8,1.2,1,2,1.9
							c-0.1-0.2,0.3,0.2,0.1-0.1c0.1,0.1,0.1,0.1,0.1,0.2c0-0.1,0-0.2,0.1,0c0,0-0.1-0.1-0.1-0.1c0.1,0.1,0.1,0.1,0.2,0.1
							c0,0-0.1-0.2-0.1-0.2c0-0.1-0.1-0.3-0.1-0.5c-0.1-0.2-0.2-0.4-0.3-0.6c-0.3-0.4-0.4-0.5-0.6-0.9c0.1,0.1-0.1-0.2,0-0.1
							c-0.1-0.1-0.1-0.2-0.1-0.2c0.1,0.1,0.1,0.1,0.2,0.1c-0.2-0.2-0.1-0.1-0.1-0.1c-0.1-0.2-0.4-0.5-0.4-0.6
							c0.2,0.2,0.4,0.4,0.6,0.6c0.2,0.2,0.4,0.4,0.5,0.6c0.1,0.2,0.3,0.4,0.3,0.5c-0.1-0.1-0.2-0.2-0.2-0.2c0.2,0.3,0.5,0.6,0.8,1.1
							c0,0.1,0.1,0.2,0.3,0.4c0.1,0.2,0.3,0.4,0.4,0.6c0,0-0.1-0.1-0.1-0.1c0.1,0.1,0.2,0.2,0.3,0.4c0.1,0.1,0.2,0.3,0.3,0.4
							c0.2,0.3,0.4,0.6,0.5,0.8c0,0.1,0.2,0.4,0.3,0.7c0.1,0.3,0.3,0.6,0.3,0.6c0.1,0.2,0.2,0.5,0.3,0.6c-0.1-0.1-0.2-0.2-0.2-0.1
							c0,0.1,0.2,0.6,0.3,0.8c0,0,0.2,0.3,0.2,0.5c0,0-0.1-0.1-0.1-0.2c0,0.2,0,0.2,0,0.4c0.1,0.2,0.2,0.4,0.2,0.5
							c0-0.1-0.1-0.2-0.1-0.3c0.1,0.2,0,0.2,0.1,0.3c0,0,0.1,0.2,0.1,0.3c0.1,0.1,0,0,0.1,0.1c0.2,0.6,0.2,1.1,0.4,1.6
							c0-0.1-0.1-0.2-0.1-0.4c0-0.2-0.1-0.4-0.1-0.6c0-0.2-0.1-0.4-0.2-0.7c0,0,0,0.1,0,0c-0.1-0.2-0.1-0.3-0.2-0.5
							c0-0.1,0-0.2-0.1-0.4c0.1,0.2,0-0.2,0-0.2c0.1,0.2,0.1,0.1,0.1,0.1c0,0.1,0,0.1,0.1,0.2c0.1,0.2,0.2,0.5,0.2,0.7
							c0.1,0.3,0.2,0.6,0.3,0.9c0-0.2-0.2-0.7-0.3-1.1c0.1,0.1,0-0.2,0-0.5c-0.1-0.2,0,0-0.1-0.2c0-0.2-0.2-0.7,0-0.6
							c0.1,0.3,0.2,0.5,0.3,0.6c0,0.1,0.1,0.2,0.1,0.3c0,0.1,0.1,0.2,0.1,0.4c0,0,0.1,0.2,0.1,0.2c0,0,0-0.1,0-0.2
							c0,0,0.1,0.1,0.1,0.2c0.1,0.1-0.1-0.5-0.1-0.6c0.1,0.2,0.2,0.5,0.3,0.8c0.1,0.3,0.2,0.5,0.2,0.7c-0.1-0.2,0-0.3,0-0.1
							c-0.1-0.3,0-0.4-0.1-0.7c-0.2-0.5-0.3-0.5-0.5-1.1c0-0.2-0.2-0.7-0.4-1.2c-0.1-0.2-0.2-0.5-0.3-0.7c-0.1-0.2-0.2-0.4-0.2-0.5
							c0,0.1,0,0.1,0,0.1c-0.1-0.2-0.2-0.4-0.2-0.5c0,0-0.1-0.2-0.2-0.3c0,0.1,0.1,0.2,0.1,0.2c-0.2-0.4-0.4-0.7-0.6-1
							c-0.2-0.3-0.4-0.6-0.6-0.9c0,0,0,0,0,0c-0.3-0.5-0.6-0.9-0.9-1.3c-0.3-0.4-0.6-0.7-1-1.1c0,0,0,0,0,0
							c-0.1-0.2-0.4-0.4-0.5-0.5c0,0,0,0,0,0c-0.6-0.6-1.5-1.4-1.5-1.6c0.1,0.1,0.1,0.1,0.1,0.1c-0.1-0.1-0.3-0.3-0.2-0.2
							C40.2,8,40,7.9,40.2,7.9c0,0-0.1-0.1,0-0.1C40,7.8,40,7.8,39.9,7.7c0,0,0,0,0,0c0.1,0.1,0.2,0.1,0.1,0.1
							c-0.3-0.2,0-0.1-0.2-0.2c-0.2-0.1-0.1-0.1-0.4-0.3c0.1,0.1,0,0,0,0c0,0,0.2,0.1,0.2,0.1c-0.1-0.1-0.1-0.1-0.1-0.1
							c-0.1-0.1-0.1-0.1-0.2-0.1c0.2,0.1-0.2-0.2-0.1-0.1c0.3,0.2,0.5,0.4,0.8,0.7c0.1,0.1,0.6,0.6,0.7,0.7c-0.1,0-0.1-0.1-0.1-0.1
							c0.1,0.1,0.1,0.1,0.2,0.2c0.5,0.4,0.5,0.5,0.9,1c0,0,0.2,0.2,0.4,0.4c0,0,0.1,0.1,0.3,0.3c0-0.1,0.4,0.3,0.3,0.1
							c0,0.1,0.1,0.2,0.2,0.2c0,0-0.2-0.2-0.1-0.2c0,0,0.1,0.1,0.2,0.2c0,0-0.1-0.2-0.2-0.3c-0.1-0.2-0.3-0.3-0.3-0.4
							c0.3,0.3,0.5,0.6,0.7,0.8c0.1,0.1,0.2,0.2,0.3,0.4c0.1,0.1,0.2,0.3,0.3,0.4l0,0c0.4,0.6,0.5,0.5,0.8,1
							c0.1,0.1,0.2,0.2,0.3,0.4c0.1,0.2,0.2,0.3,0.4,0.5c0,0,0.2,0.3,0.2,0.3c0.5,0.8,0.1-0.1,0.2,0c-0.1-0.2-0.2-0.4-0.2-0.5
							c0.1,0.2,0.1,0.1,0,0l0.1,0.2c0,0,0.1,0.1,0-0.1c-0.3-0.5-0.6-0.9-0.7-1.2c0.1,0.1,0,0,0.1,0.1c0,0-0.2-0.2-0.1-0.3
							c0.2,0.3,0.2,0.4,0.4,0.7c0-0.1,0.1,0.1,0.1,0c-0.1-0.1-0.1-0.1-0.1-0.2c0.1,0.1,0-0.1,0-0.1c-0.1-0.2-0.1-0.2-0.3-0.4
							c0,0-0.2-0.3-0.2-0.3c0.2,0.3,0-0.1,0.1,0.1c-0.3-0.4-0.4-0.5-0.5-0.8c0.1,0.1,0.2,0.2,0.3,0.2c-0.1-0.1-0.1-0.1-0.1-0.2
							c-0.2-0.3-0.4-0.5-0.5-0.7c-0.2-0.2-0.4-0.5-0.6-0.8c0.2,0.2,0.5,0.6,0.9,1c0.1,0.1,0.2,0.2,0.2,0.1c-0.1-0.1-0.2-0.3-0.3-0.4
							c-0.1-0.1-0.2-0.3-0.3-0.4c-0.1-0.1-0.2-0.3-0.4-0.4c-0.1-0.1-0.3-0.3-0.4-0.4c-0.2-0.3-0.9-0.9-1.4-1.4
							C41.3,7.5,40.8,7,40.7,7c-0.7-0.5-1.4-1-2.2-1.6c-0.1-0.1,0.2,0.1,0-0.1C38.2,5.3,38,5.1,37.8,5c-0.2-0.1-0.4-0.2-0.6-0.3
							c0.2,0.1,0.4,0.2,0.6,0.4c0.2,0.1,0.4,0.3,0.6,0.4c0.4,0.2,0.8,0.5,1.2,0.8c0,0,0.1,0.1,0.1,0.1C39.5,6.2,39.2,6,39,5.8
							c-0.2-0.1-0.4-0.2-0.3-0.2c-0.1,0-0.3-0.2-0.4-0.3c-0.1,0-0.2-0.1-0.4-0.2c-0.2-0.1-0.3-0.2-0.5-0.3c0,0-0.2-0.1-0.2-0.1
							c0,0,0.2,0.1,0.2,0.2c-0.2-0.1-0.3-0.2-0.5-0.3c-0.2-0.1-0.4-0.2-0.6-0.3c0,0-0.1,0,0,0c-0.1-0.1-0.5-0.2-0.5-0.2
							c0.3,0.1,0.1,0,0.3,0.1c0.1,0,0,0-0.1-0.1c0.2,0.1,0.2,0,0.4,0.1c-0.1,0-0.2-0.1-0.2-0.1c0,0,0.2,0.1,0.2,0.1
							c-0.2-0.1-0.4-0.2-0.7-0.3c0,0-0.3-0.1-0.4-0.2c0.1,0,0.2,0.1,0.4,0.2c-0.1-0.1,0.2,0.1,0.2,0c-0.2-0.1-0.8-0.3-1.1-0.5
							c0.5,0.2,0.6,0.2,0.9,0.3c0.2,0-0.5-0.3-0.8-0.4c-0.2-0.1-0.5-0.2-0.8-0.3c-0.3-0.1-0.6-0.2-0.7-0.3c0.2,0.1,0.6,0.2,0.6,0.2
							c-0.1,0-0.3-0.1-0.4-0.1c0.2,0.1,0.4,0.1,0.4,0.2c-0.1,0-0.1,0-0.1,0c-0.2-0.1-0.5-0.2-0.4-0.2c0,0-0.2-0.1-0.2,0
							c0.1,0,0.1,0,0.1,0.1c0.3,0.1,0.5,0.2,0.5,0.2c-0.4-0.1-0.7-0.3-1.1-0.3c0,0-0.4-0.1-0.5-0.2c0.1,0,0.1,0,0.1,0
							c-0.8-0.3-1.3-0.4-2.1-0.5c0.2,0,0.3,0.1,0.6,0.1c-0.1,0-0.3-0.1-0.3-0.1c0.2,0,0.4,0.1,0.3,0c0.3,0.1,0.5,0.1,0.9,0.2
							c-0.1-0.1-0.4-0.1-0.6-0.1c0,0,0,0-0.1,0c0.3,0,0.2,0,0.1-0.1c0.6,0.1,1.1,0.3,1.7,0.4c0.5,0.2,1.1,0.4,1.6,0.6
							c0.2,0.1,0.4,0.2,0.6,0.3c0.2,0.1,0.5,0.2,0.8,0.4c0,0,0.1,0.1,0,0.1c0.5,0.2,0.9,0.5,1.2,0.6c0.1,0,0.4,0.3,0.6,0.3
							c0,0,0.1,0,0,0c0.4,0.2,0.6,0.4,1.1,0.7c-0.2-0.1,0.2,0.1-0.2-0.2c-0.1,0,0.1,0.1,0,0c0,0-0.4-0.3-0.5-0.4
							c-0.3-0.1-0.6-0.3-1-0.6c0,0-0.1-0.1-0.3-0.2c0.2,0.1,0,0-0.1,0c-0.3-0.2-0.6-0.3-0.8-0.4c0.1,0,0.1,0,0.3,0.1c0,0-0.1,0,0,0
							c-0.2-0.1-0.3-0.1-0.4-0.2c0.1,0-0.6-0.3-0.8-0.4c0,0,0,0-0.2,0c0,0,0.1,0,0,0c-0.5-0.2-1-0.4-1.5-0.6c-0.5-0.2-1-0.3-1.5-0.5
							c-0.3-0.1-1.3-0.3-1.3-0.3c-1.2-0.3-2.5-0.4-3.8-0.5c-0.4,0-1,0-1.4,0c0.1,0-0.1,0-0.2,0c-0.4,0,0.3-0.1,0.6-0.1
							c-0.3,0,0,0,0.1-0.1c0.3,0,0.6,0,0.9,0c0.3,0,0.6,0,0.9,0c0.2,0,0.2,0,0.4,0c0.3,0,0.5,0.1,0.8,0.1c0.2,0,0.3,0,0.5,0
							c0.2,0,0.4,0.1,0.5,0.1c0.1,0,0.3,0,0.4,0c0,0,0,0-0.1,0c0.2,0,0.3,0,0.4,0.1c0,0,0,0,0.1,0c0.2,0.1,0.5,0.1,0.7,0.1
							c0.2,0.1-0.2,0,0.1,0c0,0,0.3,0,0.4,0c0.2,0.1,0.7,0.2,0.6,0.2c0.2,0.1,0.5,0.1,0.7,0.2c0.3,0.1,0.5,0.2,0.7,0.2
							c-0.1,0-0.1,0-0.1,0c0.4,0.1,0.6,0.2,0.8,0.3c0,0,0,0-0.1,0c0.3,0.1,0.6,0.2,0.9,0.3c0.3,0.1,0.5,0.2,0.7,0.3
							c0.1,0,0.1,0,0.2,0c0.1,0.1,0.2,0.1,0.3,0.1c0.1,0.1,0.1,0.1,0.2,0.1c-0.2-0.1,0.2,0.1,0.3,0.1c0,0,0.1,0.1,0.1,0.1
							c0,0-0.2-0.1-0.2-0.1C37.1,4,37.1,4,37.1,4c-0.1-0.1-0.3-0.2-0.5-0.3c-0.1,0-0.7-0.3-0.8-0.4c0.1,0,0.1,0,0.1,0c0,0,0,0,0,0
							c0.3,0.1,0.7,0.3,1.1,0.5c-0.1-0.1,0.1,0,0.1,0c-0.4-0.2-0.8-0.4-1.2-0.6c0.2,0.1-0.2-0.1-0.2-0.1c-0.1-0.1-0.4-0.2-0.5-0.2
							c0.1,0,0.1,0,0,0c-0.2-0.1-0.6-0.3-0.9-0.4c0.4,0.1,0.2,0.1,0.5,0.2c-0.2-0.1-0.4-0.2-0.6-0.2l0,0c-0.3-0.1-0.6-0.2-1-0.3
							c-0.2-0.1-0.4-0.1-0.5-0.2C32.6,2,32.4,2,32.3,1.9c0,0,0,0-0.1,0c-0.2,0-0.3-0.1-0.5-0.1c-0.2,0-0.4-0.1-0.5-0.1
							c-0.3-0.1-0.6-0.2-0.8-0.2c0,0,0.3,0,0.4,0.1c0-0.1-0.4-0.1-0.5-0.1c0,0,0,0,0,0c-0.2,0-0.3,0-0.6-0.1
							c-0.3-0.1-0.4-0.1-0.8-0.1c0.1,0-0.4-0.1-0.6-0.1c0.3,0,0.1,0-0.1,0c-0.3,0-0.6,0-0.6-0.1c0.2,0,0.2,0,0.4,0
							c-0.3,0-0.2,0-0.2,0c-0.3,0-0.3,0-0.5,0c0,0,0.3,0,0.4,0.1c-0.1,0-0.1,0-0.2,0C27.2,1,27.1,1,27,1c0,0,0,0-0.1,0
							c0.5,0,0.8,0,1.1,0.1c0.3,0,0.6,0.1,1.1,0.2c0.3,0,0.5,0.1,0.8,0.1c0.3,0,0.6,0.1,0.8,0.2c0,0,0.2,0,0.2,0.1
							c0.4,0.1,0.7,0.2,1.1,0.3c0.4,0.1,0.7,0.2,1,0.3C32.9,2,32.7,2,32.7,2c0.2,0,1,0.3,0.8,0.3c0.1,0,0.3,0.1,0.5,0.1
							c0.1,0-0.3-0.1-0.3-0.1c0.3,0.1,0.8,0.3,1,0.4c1,0.4,1.8,0.8,2.4,1.1c0,0,0.1,0.1,0.2,0.1c0.1,0.1,0-0.1,0.1,0
							c0.1,0,0.1,0,0.1,0.1c0.2,0.1,0.2,0.1,0.3,0.2c0.1,0,0.3,0.2,0.5,0.3c0,0.1,0.4,0.3,0.6,0.4c0.4,0.3,0.9,0.6,1.3,0.9
							c0.4,0.3,0.8,0.7,1.1,0.9c-0.5-0.4-0.6-0.5-1-0.9c-0.3-0.2-0.6-0.4-1-0.7c-0.3-0.2-0.7-0.5-1-0.7c0,0-0.1-0.1-0.1-0.1
							c0.1,0,0.2,0.1,0.3,0.1c-0.2-0.1-0.8-0.4-1.1-0.7c0,0-0.2-0.1-0.3-0.2c-0.2,0-1-0.5-1.3-0.6c0,0,0.5,0.2,0.3,0.1
							c-0.2-0.1-0.3-0.2-0.3-0.2c0.1,0,0.3,0.2,0.3,0.1C36,3.2,35.6,3,35.7,3c-0.2-0.1,0.1,0.1-0.2,0c0,0,0,0-0.1-0.1
							c-0.1-0.1,0.1,0,0.2,0c-0.2-0.1-0.3-0.1-0.3-0.1c-0.2-0.1,0.2,0,0,0c-0.2-0.1-0.5-0.2-0.6-0.3c0.1,0,0.1,0,0.1,0.1
							c-0.1,0-0.2-0.1-0.3-0.1c0.1,0,0.2,0.1,0.2,0.1c-0.2-0.1-0.4-0.2-0.6-0.2c-0.2-0.1-0.4-0.1-0.5-0.2c-0.1,0,0.1,0.1-0.1,0
							C33.3,2,33.3,2,33.1,1.9c0,0,0.1,0.1-0.1,0c-0.2-0.1-0.6-0.2-0.5-0.2c0.1,0,0.4,0.1,0.3,0.1c-0.3-0.1-0.6-0.2-0.7-0.2
							c-0.2-0.1,0,0-0.2-0.1c-0.1,0,0,0-0.1,0c-0.1,0-0.7-0.2-0.4-0.1c-0.3-0.1-0.3-0.1-0.7-0.2c0,0,0,0-0.1,0
							c-0.5-0.1-1-0.2-1.4-0.3c-0.5-0.1-0.9-0.1-1.3-0.2c0,0,0.1,0,0,0c-0.3,0-0.6-0.1-0.8-0.1c0,0,0,0,0.1,0c-0.3,0-0.6,0-0.8,0
							c0.2,0,0.5,0,0.5,0c-0.4,0-0.6,0-1.1,0c-0.1,0,0.2,0,0,0c-0.2,0-0.2,0-0.4,0c0,0-0.2,0-0.3,0c-0.5,0-1,0-1.4,0.1
							c-1,0-2.4,0.3-3.1,0.4c-0.1,0-0.3,0.1-0.3,0c-0.3,0.1-0.5,0.1-0.8,0.2c0.1,0,0.1,0,0.1,0c-0.1,0-0.2,0-0.4,0.1c0,0,0,0-0.1,0
							c-0.2,0.1-0.7,0.2-0.9,0.3c0,0,0.1,0,0.1,0c-0.2,0.1-0.6,0.2-0.7,0.2C17.8,2,17.8,2,17.9,2c-0.1,0-0.1,0-0.1,0
							c-0.6,0.2-1.5,0.6-1.9,0.7c-0.1,0.1-0.2,0.1-0.3,0.1C15.5,2.9,15.3,3,15,3.1c0.1,0-0.1,0-0.2,0.1c-0.1,0-0.6,0.3-0.8,0.4
							c0,0,0.4-0.2,0.3-0.2c-0.2,0.1-0.3,0.1-0.4,0.2c0.1,0-0.3,0.2-0.4,0.2c0.2-0.1,0.4-0.2,0.5-0.3C13.6,3.8,13,4.2,13,4.1
							c0,0-0.1,0.1-0.1,0.1C13.1,4,13,4.1,13.2,3.9c-0.3,0.2-0.6,0.4-0.9,0.6c-0.3,0.2-0.6,0.4-0.8,0.6c0,0,0,0,0-0.1
							c-0.2,0.1-0.1,0.1-0.3,0.3c0,0-0.1,0-0.1,0c-0.1,0.1-0.3,0.2-0.3,0.3c0.2-0.2,0.3-0.2,0.4-0.2c-0.2,0.1-0.3,0.2-0.4,0.3
							c-0.1,0.1-0.2,0.2-0.4,0.3c0.2-0.1,0.1-0.1,0.3-0.3c-0.1,0,0,0-0.2,0.1c0,0,0,0,0,0.1c0,0-0.6,0.4-0.9,0.7
							c0,0.1,0.1-0.1,0.1-0.1c-0.1,0-0.2,0.1-0.3,0.2c0.1-0.1,0.1-0.1,0-0.1c-0.2,0.1,0,0.1-0.2,0.2c0,0-0.3,0.2-0.3,0.2
							C8.7,7.2,8.7,7.3,8.7,7.2C8.5,7.4,8.4,7.5,8.3,7.6c-0.1,0.1,0,0,0,0C8.1,7.8,8.2,7.7,8,7.9C7.9,7.9,7.9,8,7.9,8.1
							c-0.1,0.1-0.2,0.2-0.1,0C7.3,8.6,7.2,8.8,7,9c0,0.1-0.2,0.3-0.3,0.4c0,0.1,0.1-0.1,0,0C6.6,9.6,6.5,9.7,6.3,9.9
							c0,0,0-0.1,0-0.1C6.3,9.9,6.2,10,6.1,10C6.2,10,6.2,9.9,6.3,9.9C6.2,10,6.2,10,6,10.2l0,0c-0.3,0.4-0.7,1-0.8,1.2
							c-0.1,0.2-0.1,0.1-0.2,0.2c0,0,0,0,0.1,0c-0.1,0.1-0.5,0.7-0.3,0.4c-0.2,0.2-0.2,0.3-0.3,0.5c0.1-0.1,0.1-0.1,0,0
							c0-0.1,0,0-0.1,0.1c0,0.1-0.1,0.2-0.1,0.3c0.1-0.1-0.2,0.2-0.2,0.3c0,0,0.1-0.1,0.1-0.1c-0.1,0.1-0.2,0.4-0.3,0.5
							c0,0,0.1-0.2,0.1-0.2c-0.1,0.2-0.1,0.2-0.2,0.4c-0.1,0.1-0.3,0.5-0.3,0.6c0.1-0.2,0.2-0.4,0.3-0.6c0.1-0.2,0.1-0.3,0.2-0.4
							c0,0,0.1-0.2,0.2-0.4c-0.1,0.1,0-0.1,0-0.1c-0.1,0.2-0.1,0.2-0.1,0.2c0,0-0.1,0.2-0.1,0.2c0-0.1,0.1-0.1,0.1-0.2
							c-0.1,0.2-0.2,0.3-0.2,0.4c-0.1,0.1-0.1,0.3-0.2,0.4c-0.1,0.2-0.2,0.4-0.3,0.7c0,0.1,0.1-0.1,0,0.1c-0.2,0.3-0.3,0.7-0.5,1
							c-0.1,0.3-0.3,0.6-0.4,0.9c0,0.1,0.1-0.1,0,0.2c-0.1,0.1-0.1,0.1-0.1,0c-0.1,0.3-0.2,0.5-0.3,0.7c-0.1,0.2-0.2,0.4-0.3,0.7
							c0,0.3-0.3,1-0.3,1.4c0-0.3,0.2-0.6,0.2-0.8c0,0.1-0.1,0.3-0.1,0.5c0,0.2-0.1,0.3-0.1,0.3c-0.1,0.3-0.2,0.6-0.2,0.7
							c-0.1,0.1-0.2,0.7-0.2,1.1c0-0.1,0,0.1,0,0.2c-0.1,0.4-0.1,0.8-0.2,1.3c0,0.4-0.1,0.9-0.1,1.3c0,0,0,0,0,0.1c0,0,0,0,0,0.2
							c0,0,0-0.2,0,0.1c0,0.1,0,0.2,0,0.3c0,0.1,0-0.1,0,0.1c0,0.1,0,0.2,0,0.2c0,0,0-0.2,0-0.1c0,0.2,0,0.3,0,0.5c0,0,0-0.2,0-0.2
							c0.1,1.3,0.2,2.9,0.4,4.2c0,0.1-0.1-0.4,0-0.2c0.1,0.6,0.2,0.7,0.2,1.1c0,0.2,0.1,0.2,0.1,0.3c0,0.2,0.2,0.8,0.2,1.1
							c0,0,0.1,0.3,0.1,0.4c0,0,0,0.1,0,0.2c0,0,0.1,0.3,0.1,0.4c0,0.1,0.1,0.2,0.2,0.5c0.1,0.1,0-0.1,0,0c0.1,0.3,0.3,0.7,0.3,0.9
							c0.1,0.1,0.4,0.9,0.4,1.1c0,0,0.3,0.6,0.3,0.7c0.1,0.2,0.2,0.4,0.4,0.6c0,0-0.1-0.1-0.1-0.1c0.1,0.2,0.3,0.5,0.4,0.7
							C4,37.5,4.1,37.8,4.2,38c0.1,0.1,0.1,0.2,0.2,0.4c0.1,0.1,0.2,0.2,0.2,0.4C4.9,39,5,39.2,5.2,39.5c0,0,0,0,0.1,0.1
							c0.1,0.2,0.3,0.5,0.5,0.7c0.2,0.2,0.3,0.4,0.3,0.5c0.2,0.2,0,0,0.2,0.2c0.2,0.3,0.4,0.5,0.6,0.7C7,41.8,7.2,42,7.3,42.1
							c0.3,0.3,0.4,0.4,0.7,0.7c0,0-0.1-0.1-0.1-0.1c0.2,0.2,0.4,0.4,0.5,0.5c0.1,0.1,0.3,0.3,0.4,0.4c0,0,0.2,0.2,0.3,0.2
							c-0.2-0.2-0.5-0.5-0.6-0.7c0.2,0.2,0.3,0.3,0.3,0.3c-0.4-0.4-0.7-0.6-1.2-1.1c0,0,0,0,0.1,0c-0.2-0.2-0.4-0.4-0.5-0.5
							C6.5,41.1,5.6,40,5,39.1c-0.2-0.3-0.6-0.8-0.8-1.3c0.1,0.1,0.4,0.6,0.4,0.7c-0.2-0.3-0.8-1.3-0.6-1.2c0,0,0,0.1-0.1-0.1
							c-0.1-0.1,0-0.1-0.1-0.2c0,0-0.2-0.3-0.3-0.6c-0.1-0.3-0.3-0.6-0.3-0.7c0,0,0,0.1,0,0.1c0-0.1-0.2-0.5-0.3-0.7
							c0,0.1,0.1,0.2,0.1,0.2c-0.1-0.2-0.1-0.2-0.2-0.4c0,0,0.1,0.2,0.1,0.2c-0.1-0.2-0.2-0.6-0.4-0.9c-0.1-0.3-0.2-0.6-0.3-0.9
							c0-0.1,0.1,0.2,0,0.1c0-0.1-0.1-0.3-0.1-0.3c0,0,0,0.1,0.1,0.1c-0.2-0.4-0.3-0.9-0.4-1.3c-0.1-0.2-0.1-0.5-0.2-0.7
							c-0.1-0.3-0.1-0.5-0.2-0.8c0-0.2-0.2-0.9-0.2-1.2C1.1,28.7,1,28,1,27.4c-0.1-1-0.1-2-0.1-2.8c0,0,0,0,0-0.1c0,0,0,0,0-0.1
							c0-0.3,0-0.5,0.1-0.6c0-0.1,0-0.1,0-0.2c0,0.1,0,0.3,0,0.4c0-0.1,0-0.1,0-0.3C1,23.4,1,23.5,1,23.1c0,0.1,0,0.2,0,0.2
							c0-0.3,0.1-0.7,0.1-1c0,0.3-0.1,0.4-0.1,0.7c0-0.3,0-0.4,0.1-0.7c0-0.1,0,0.2,0,0c0-0.1,0-0.3,0.1-0.5c0-0.2,0.1-0.4,0.1-0.6
							c0,0.1-0.1,0.3,0,0.2c0-0.1,0-0.2,0.1-0.3c0-0.1,0-0.3,0.1-0.5c0-0.2,0.1-0.4,0.1-0.5c0-0.1,0-0.1,0.1-0.2
							c0-0.1,0.1-0.7,0.2-0.8c0,0-0.1,0.3-0.1,0.3c0.2-0.6,0.2-0.8,0.3-1.1c0-0.1,0-0.1,0.1-0.2c-0.1,0.1,0.1-0.3,0.2-0.6
							c0,0,0,0,0,0.1c0,0.1-0.1,0.3-0.1,0.3c0.1-0.2,0,0.2,0,0.2c0,0.1,0,0.1,0,0.1c-0.1,0.4-0.3,1-0.4,1.4c0,0,0-0.1,0,0
							c0-0.1,0,0.2,0,0.2c0.1-0.2,0,0.1,0,0.2c0-0.1,0-0.1,0,0.1c0,0.1-0.1,0.4-0.1,0.6c0,0.1,0-0.1,0,0.1h0c0,0.2-0.1,0.8-0.2,1
							c0,0.2,0.1-0.2,0,0.1c0,0-0.1,0.7-0.1,0.7c0,0.3,0,0.5-0.1,0.7c0,0.2,0,0.4,0,0.6c0,0-0.1,0.4,0,0.4c0-0.1,0-0.3,0-0.1
							c0,0.4,0,1,0,1.5c0,0.5,0,1.1,0.1,1.5c0-0.1,0-0.1,0-0.1l0,0.2c0,0,0,0,0-0.1c0,0.2,0,0.5,0,0.7c0-0.2,0,0.1,0,0.1
							c0,0,0,0,0,0.2c0-0.1,0-0.2,0-0.2c0.1,0.5,0.1,1.3,0.3,1.8c0,0.2,0-0.2,0,0c0,0.2,0.1,0.4,0.1,0.5c0,0-0.1-0.6-0.1-0.3
							c0.1,0.3,0.1,0.5,0.2,0.8c0-0.1,0.2,0.7,0.3,1c0,0.1,0.1,0.5,0.2,0.8c-0.1-0.4-0.2-0.8-0.2-0.9c0,0.1,0,0.2,0.1,0.2
							c-0.1-0.3-0.1-0.2-0.1-0.5c0,0,0.1,0.3,0.1,0.4c-0.1-0.5-0.2-0.9-0.3-1.2c0,0.2,0,0.1,0.1,0.2c0,0.1,0.1,0.3,0.1,0.4
							c0.1,0.1,0.2,0.7,0.3,1.1c0.1,0.2,0.1,0.5,0.2,0.6c0-0.2,0,0,0.1,0.1c0,0,0.2,0.6,0.1,0.3c0.1,0.2,0.1,0.3,0.1,0.3
							c0.1,0.2,0.1,0.4,0.2,0.5c0,0-0.1-0.1,0,0.1c0.1,0.1,0,0,0.1,0.1c0,0,0,0.1,0,0.1c0.1,0.2,0.2,0.7,0.3,0.8c0-0.1,0-0.1,0-0.1
							c0.1,0.3,0.2,0.5,0.2,0.6c0.1,0.1,0.1,0.2,0.2,0.4c0,0,0.2,0.3,0.3,0.5c0.1,0.2,0.2,0.4,0.2,0.4c0.1,0.2,0.2,0.3,0.3,0.5
							c0.1,0-0.2-0.4-0.2-0.4c0.1,0.1,0.3,0.6,0.4,0.7c0.1,0.1,0.1,0.2,0.1,0.2c0.1,0.1,0.1,0.1,0.2,0.2c0-0.1-0.1-0.1-0.1-0.2
							c0.1,0.2,0.4,0.6,0.3,0.6c-0.1-0.1-0.1-0.1-0.1-0.1c0.1,0.1,0.3,0.4,0.4,0.5c-0.1-0.2-0.1-0.1-0.2-0.3c0-0.1,0.1,0,0-0.1
							c0.2,0.3,0.3,0.4,0.4,0.7c0,0-0.1-0.1-0.1-0.1C5.3,39,5.2,38.9,5.3,39c0.1,0.1,0.1,0.2,0.1,0.3c0.3,0.4,0.5,0.7,0.9,1.2
							c0.1,0-0.2-0.3-0.2-0.3c0.2,0.2,0.4,0.5,0.6,0.8c0.2,0.3,0.5,0.5,0.7,0.7c0,0-0.1-0.1-0.1-0.1c0.3,0.3,0.4,0.5,0.5,0.5
							c0.1,0.2,0.3,0.4,0.6,0.6C8.7,43,9,43.2,9.2,43.5c0.5,0.5,1,0.9,1.3,1.1c0.2,0.1,0.4,0.3,0.6,0.4c0.2,0.1,0.4,0.3,0.5,0.4
							c0.1,0.1,0.3,0.2,0.4,0.3c0.2,0.1,0.3,0.2,0.4,0.3c-0.1,0,0,0,0.1,0c0.4,0.3,0.7,0.4,1,0.6c0.2,0.1,0.3,0.2,0.5,0.3
							c0.2,0.1,0.4,0.2,0.6,0.3c0,0-0.7-0.3-0.6-0.3c-0.5-0.3-0.7-0.4-1.1-0.7c0.1,0,0.1,0.1,0.2,0.1c0,0-0.1-0.1-0.1-0.1
							c0.2,0.1,0.4,0.2,0.5,0.2c-0.2-0.1-0.4-0.2-0.6-0.3c-0.2-0.1-0.4-0.3-0.6-0.4c0.1,0,0.7,0.5,0.8,0.5c-0.3-0.2-0.6-0.4-0.9-0.6
							c0.2,0.1-0.1-0.1-0.1-0.1c0.2,0.1,0.3,0.2,0.5,0.3c-0.1,0-0.2-0.1,0,0c0.2,0.1,0.2,0.1,0.3,0.2c0,0-0.2-0.1-0.1,0
							c0.2,0.1,0.6,0.3,0.7,0.4c0,0-0.1,0,0-0.1c0.1,0.1,0.2,0.1,0.3,0.2l0,0c0.3,0.2,0.5,0.2,0.6,0.3c0.2,0.1,0.8,0.4,0.9,0.4
							c-0.3-0.1-0.7-0.3-0.8-0.4c-0.2-0.1-0.4-0.2-0.5-0.3c-0.2-0.1-0.4-0.2-0.5-0.3c-0.3-0.2-0.6-0.4-0.9-0.5
							c-0.1-0.1-0.3-0.2-0.5-0.3c-0.2-0.1-0.3-0.2-0.4-0.3c-0.2-0.2-0.6-0.4-0.7-0.5c0.1,0.1,0.3,0.2,0.5,0.4c0.1,0.1-0.1-0.1,0.1,0
							c2.3,1.7,5.3,3,8.4,3.8c0-0.1,0.9,0.2,1.1,0.2c0.1,0,0.5,0.1,0.6,0.1c-0.1,0-0.5-0.1-0.6-0.1c0,0-0.1,0,0.1,0
							c0.7,0.1,1.1,0.2,1.4,0.2c-0.4,0-0.7-0.1-1.2-0.2c0.1,0,0.1,0,0,0c0.1,0.1-0.3,0-0.4,0c-0.2,0-0.2-0.1-0.3-0.1
							c0.2,0,0.6,0.1,0.9,0.1c0,0-0.2-0.1-0.4-0.1c-0.4-0.1-1-0.2-1.6-0.4c-0.6-0.2-1.2-0.3-1.6-0.5c-0.1,0-0.1,0-0.2-0.1
							c-0.2-0.1-0.6-0.2-0.9-0.3c-0.2-0.1-0.3-0.1-0.5-0.2c-0.1-0.1-0.3-0.1-0.4-0.2c-0.3-0.1-0.6-0.3-0.9-0.4c0,0-0.1,0-0.3-0.1
							c0.1,0,0,0,0,0c0.1,0.1,0.3,0.1,0.4,0.2c-0.1,0-0.3-0.1-0.2-0.1c0.2,0.1,0.3,0.1,0.4,0.2c0.1,0,0.2,0.1,0.4,0.2
							c-0.1,0-0.1-0.1-0.3-0.1c-0.2-0.1-0.8-0.4-0.9-0.4c-0.1-0.1-0.2-0.1-0.1-0.1c-0.2-0.1-0.4-0.3-0.7-0.4
							c-0.2-0.1-0.5-0.3-0.7-0.4c0,0,0.2,0.1,0.3,0.1c-0.4-0.2,0.1,0,0.1,0c-0.3-0.1-0.7-0.4-1.1-0.7c-1.2-0.8-2.4-1.8-3.5-2.9
							c-1.1-1.1-2.1-2.3-2.8-3.4c-0.2-0.3-0.5-0.7-0.7-1C5.2,37.3,5,37,4.9,36.8c-0.2-0.3-0.5-0.9-0.6-1.2c-0.1-0.2-0.5-0.9-0.5-1.2
							c0.1,0.3,0,0,0-0.1c0.2,0.5,0.3,0.8,0.4,0.8c0,0.1,0,0.1,0.1,0.2c0,0,0-0.1-0.1-0.1c0.1,0.4,0-0.1,0.1,0.2
							c0,0.1,0.2,0.4,0.1,0.3c-0.1-0.2-0.1-0.2-0.1-0.3c0.1,0.2,0.2,0.5,0.3,0.7c0.1,0.2,0.2,0.4,0.3,0.5c-0.1-0.2-0.3-0.5-0.4-0.8
							c0-0.1,0-0.1,0-0.1c-0.1-0.3-0.2-0.5-0.3-0.7c0.3,0.7,0.2,0.6,0.5,1.1c0,0,0-0.1,0,0c0.2,0.3,0.2,0.5,0.4,0.8
							c0.1,0.1,0.2,0.5,0.3,0.4C5.1,37.1,5,36.8,5,36.8c-0.2-0.4-0.4-0.7-0.5-1c0.1,0.2,0.2,0.4,0.3,0.4c-0.1-0.2-0.1-0.2-0.2-0.4
							c0,0,0.1,0.1,0.1,0.1c-0.1-0.2-0.3-0.7-0.4-0.8c0.1,0.2,0.2,0.4,0.3,0.6c0.1,0.2,0.2,0.4,0.3,0.5c0,0,0,0,0,0.1l0,0
							c-0.2-0.5-0.4-0.6-0.5-1c0.1,0.2,0.2,0.4,0.3,0.6C4.7,36,5,36.5,5.1,36.8c-0.2-0.4-0.3-0.7-0.5-1c-0.2-0.3-0.3-0.6-0.5-0.9
							c0-0.1,0.2,0.4,0.1,0.1c-0.4-0.7-0.7-1.7-0.9-2.4c0.1,0.3,0.2,0.6,0.3,0.9c0.1,0.3,0.2,0.5,0.3,0.8c0.1,0.2,0-0.1,0,0
							c0.2,0.4,0.6,1.3,0.9,1.9c0,0,0-0.1,0,0c0.2,0.3,0.5,0.9,0.7,1.2c0,0-0.1-0.1-0.1-0.1c0.2,0.4,0.5,0.8,0.7,1.2
							c0.3,0.4,0.6,0.8,0.8,1.1l0,0c0.5,0.7,1.4,1.6,2.1,2.4c0,0,0,0,0.1,0.1c0.9,0.9,1.9,1.7,3,2.4c1.1,0.7,2.2,1.4,3.2,1.9
							c-0.1,0-0.2-0.1-0.2-0.1c1,0.5,1.8,0.8,2.7,1.1c0.1,0,0.2,0.1,0.3,0.1c0,0-0.1,0-0.1-0.1c0.2,0.1,0.5,0.2,0.7,0.2
							c0.3,0.1,0.5,0.1,0.8,0.2l0,0c0.4,0.1,0.8,0.2,1.1,0.2c-0.1,0-0.1,0-0.1,0c0.3,0,0.5,0.1,0.6,0.1c0.2,0,0.4,0.1,0.4,0.1
							c0.2,0,0,0,0.1,0c1.1,0.2,2.3,0.3,3.7,0.3c1.3,0,2.6-0.1,3.8-0.4c-1.9,0.3-3.9,0.4-5.9,0.3c0,0-0.4,0-0.3,0
							c-1.1-0.1-2.5-0.4-3.5-0.6c0,0,0,0-0.1,0c0,0-0.1,0-0.2,0c-0.1-0.1-0.5-0.1-0.8-0.2c-0.1,0-0.7-0.2-0.9-0.3
							c-0.1,0-0.1,0-0.2,0c0,0-0.3-0.1-0.4-0.2c-0.2,0-0.4-0.2-0.7-0.3c0,0-0.4-0.2-0.6-0.3c-0.1,0,0.1,0-0.1,0
							c-1.3-0.6-2.5-1.3-3.8-2.2c0,0,0.1,0.1,0.1,0.1c-0.1-0.1-0.1,0-0.2-0.2c0,0-0.1-0.1,0,0c-0.2-0.1-0.5-0.4-0.7-0.6
							c-0.1,0,0.1,0.1,0.1,0.1c-0.1-0.1-0.1-0.1-0.2-0.2c0,0,0.1,0.1,0.1,0c-0.2-0.2-0.2-0.1-0.4-0.3c0,0-0.2-0.2-0.3-0.3
							c-0.1-0.1-0.1-0.1-0.1,0c-0.1-0.1-0.2-0.2-0.3-0.2l0,0c-0.1-0.1-0.4-0.4-0.5-0.4c0.1,0.1,0.2,0.2,0.3,0.3
							c0.1,0.1,0.2,0.2,0.3,0.3c0,0-0.2-0.2-0.4-0.4c-0.2-0.2-0.5-0.4-0.5-0.5c0.2,0.2,0.4,0.4,0.7,0.6c0.2,0.2,0.4,0.4,0.6,0.6
							c0.2,0.2,0.4,0.4,0.7,0.5c0.1,0.1,0.2,0.2,0.4,0.3c0.1,0.1,0.3,0.2,0.4,0.3c0,0-0.1-0.1,0,0c0.1,0.1,0.3,0.2,0.3,0.2
							c-0.1,0-0.2-0.1-0.2-0.1c0.1,0.1,0.3,0.2,0.4,0.3c0.2,0.1,0.3,0.2,0.4,0.2c-0.1-0.1-0.3-0.2-0.1-0.1c0.8,0.6,1.9,1.1,2.7,1.5
							c1.2,0.6,2.4,1,3.8,1.4l0,0c0.5,0.1,1,0.3,1.4,0.3c0.2,0,0.3,0.1,0.3,0.1c0.1,0,0.3,0.1,0.3,0.1c-0.2,0-0.4-0.1-0.4-0.1
							c0.3,0,1.1,0.2,1.5,0.3c0.3,0,0.6,0.1,0.9,0.1c0.3,0,0.6,0,0.9,0.1c-0.3,0-1.1-0.1-1.1-0.1c0.4,0,0.6,0,1,0.1c0,0,0.1,0,0.3,0
							c0.3,0,1.1,0,1.6,0c0.1,0,0.3,0,0.5,0c0,0-0.2,0-0.1,0c-0.1,0-0.3,0-0.3,0c0.6,0,1.1-0.1,1.6-0.1c0.3,0,0.5-0.1,0.7-0.1
							c0.2,0,0.5-0.1,0.8-0.1c0-0.1,0.6-0.1,0.8-0.2c-0.1,0,0,0,0.2,0c0.2,0,0.4-0.1,0.5-0.1c0.5-0.1,1-0.3,1.3-0.4
							c-0.3,0-0.5,0.2-0.9,0.2c0,0,0,0,0.2-0.1c0,0,0.4-0.1,0.3-0.1c-0.3,0.1-0.4,0.1-0.7,0.2c0.3-0.1,0.7-0.2,1.1-0.3
							c0.2-0.1,0.6-0.2,1.1-0.4c-0.1,0,0.4-0.2,0.7-0.3c0.2-0.1,0,0,0.4-0.2c-0.1,0-0.2,0.1-0.3,0.1c0.1-0.1,0.2-0.1,0.5-0.3
							c0,0-0.1,0-0.1,0.1c0.3-0.1,0.6-0.3,0.6-0.3c0.2-0.1,0.2-0.1,0.4-0.2c0.3-0.1,0.7-0.3,0.8-0.4c-0.2,0.1-0.4,0.2-0.5,0.2
							c0.2-0.1,0.3-0.2,0.3-0.2c-0.2,0.1-0.6,0.3-0.7,0.3c0.1,0,0.2-0.1,0.3-0.1c0,0-0.3,0.1-0.1,0c-0.1,0-0.3,0.1-0.2,0.1
							c0.1-0.1,0.2-0.1,0.2-0.1c-0.1,0.1-0.4,0.2-0.6,0.3c0.2-0.1,0.5-0.2,0.8-0.4s0.6-0.3,0.8-0.4C36.3,45.3,36.3,45.3,36.3,45.1
							c-0.2,0.2-0.4,0.3-0.1,0.2c-0.2,0.1-0.2,0.1-0.3,0.1c0.3-0.2,0.3-0.1,0.6-0.3C36.3,45.2,36.2,45.2,36.3,45.1z M8.6,43.4
							c0,0-0.2-0.1-0.2-0.2C8.4,43.2,8.6,43.4,8.6,43.4z M3.1,35.8c0-0.1-0.2-0.3-0.2-0.5c0,0,0,0.1,0,0C3,35.5,3,35.6,3.1,35.6
							C3.1,35.7,3.1,35.7,3.1,35.8z M3.9,13.2C3.9,13.2,3.9,13.2,3.9,13.2c0.1-0.1,0,0-0.1,0.2c0-0.1,0,0,0-0.1
							c-0.1,0.1-0.2,0.3-0.2,0.3C3.7,13.5,3.8,13.4,3.9,13.2z M35.1,3.5c0,0,0.1,0,0.2,0.1l0,0C35.2,3.6,35.2,3.5,35.1,3.5
							C35.2,3.5,35.2,3.5,35.1,3.5z M38.7,8.3c0.2,0.2,0.5,0.3,0.5,0.4C39.1,8.6,38.7,8.4,38.7,8.3z M3.8,28.5
							c0-0.3-0.1-0.5-0.1-0.9C3.7,27.9,3.8,28.2,3.8,28.5z M35.8,45.5C35.8,45.5,35.7,45.5,35.8,45.5c-0.2,0.2-0.3,0.2-0.4,0.2
							c0,0,0.1,0,0.1-0.1c0,0,0,0-0.1,0C35.5,45.6,35.8,45.5,35.8,45.5z M33.8,46.6c0,0-0.2,0.1-0.4,0.2
							C33.4,46.8,33.6,46.7,33.8,46.6C33.7,46.6,33.7,46.6,33.8,46.6z M31.1,47.7c-0.1,0-0.5,0.2-0.5,0.1
							C30.8,47.7,30.8,47.7,31.1,47.7z M24.7,47.7c0.2,0-0.4,0-0.4,0C24.4,47.7,24.6,47.7,24.7,47.7z M23.3,47.6c0,0-0.3,0-0.1,0
							c0,0-0.5,0-0.5-0.1C23,47.6,23.1,47.6,23.3,47.6z M12.2,45.8c0,0-0.3-0.2-0.4-0.3C11.9,45.5,12.1,45.7,12.2,45.8z M10.8,43.4
							c0,0-0.2-0.2-0.3-0.2C10.5,43.1,10.8,43.3,10.8,43.4z M6.3,38.5c0-0.1,0.2,0.2,0.2,0.3C6.5,38.7,6.5,38.6,6.3,38.5
							c-0.1-0.2-0.4-0.5-0.6-0.9c-0.2-0.4-0.5-0.8-0.7-1.2c-0.2-0.3-0.3-0.6-0.4-0.8c-0.1-0.3-0.2-0.5-0.3-0.7c0,0,0-0.1,0-0.1
							C4.2,34.5,4.1,34.3,4,34c0-0.1,0,0.1-0.1-0.2c0,0.1,0,0,0,0C4,34,4,33.9,4,34c0,0.1,0.1,0.2,0.1,0.2c0,0.1,0,0.1,0.1,0.2
							c0,0.1,0.1,0.1,0.1,0.2c0-0.1-0.2-0.5-0.2-0.6c0.1,0.3,0.1,0.3,0.2,0.6c0-0.1-0.1-0.3-0.2-0.5c-0.2-0.4-0.2-0.4-0.4-0.9
							c0,0,0.1,0.2,0.1,0.3c-0.2-0.4-0.3-0.8-0.4-1.1c0-0.1-0.1-0.2,0-0.2c0-0.2-0.2-0.5-0.2-0.5c0-0.1,0,0-0.1-0.2
							c0-0.2-0.1-0.5-0.2-0.7c-0.1-0.3-0.1-0.6-0.2-0.8c-0.1-0.3-0.2-0.9-0.2-1.2c0-0.1-0.1-0.5-0.1-0.8c0-0.4,0-0.7,0-0.9
							c0-0.4,0-0.4-0.1-0.8c0,0.1,0,0.4,0,0.4c0,0,0-0.3,0-0.7c0,0,0,0.1,0,0.1c0-0.1,0-0.3,0-0.5c0-0.2,0-0.4,0-0.6
							c0-0.2,0-0.4,0-0.7c0-0.2,0-0.4,0.1-0.6c0,0.2,0,0.4,0,0.6c0-0.1,0.1-0.8,0-0.9c0-0.2,0-0.2,0-0.3c0,0,0,0,0,0.2
							c0,0,0-0.3,0-0.2c0,0.4-0.1,0.6-0.1,1c0-0.1,0-0.4,0.1-0.7c0,0.8,0,1.4-0.1,2.3c0,0,0-0.1,0-0.2c0-0.1,0-0.2,0-0.2
							c0,0.6,0,1,0,1.4l0,0c0,0,0-0.1,0-0.2c0,0.1,0,0.3,0,0.2c0,0.2,0,0.3,0,0.5c0,0,0-0.1,0-0.3c0,0.2,0,0.6,0.1,0.8
							c0,0.2,0,0,0,0.2c0,0.1,0.1,0.5,0.1,0.8c0,0.4,0.1,0.7,0.1,0.9c0,0.1,0,0.2,0,0.1c0,0.2,0.1,0.3,0,0.3C3,30.4,3,30.7,3.1,31
							c0,0.2,0-0.1,0,0c0,0.1,0,0.1,0,0.1c0,0.2,0.1,0.2,0.1,0.4c0,0-0.1-0.1-0.1,0c0,0.1,0,0,0,0c0.1,0.2,0,0.2,0.1,0.4
							c0-0.1,0.1,0.3,0.1,0.4c-0.1-0.2-0.1-0.2-0.1-0.3c0,0,0,0.1,0,0c0.1,0.3,0.1,0.3,0.2,0.5c0,0,0.1,0.1,0.1,0
							c0.1,0.2,0.1,0.4,0.2,0.5c0,0-0.1-0.2-0.1-0.3c0-0.1,0,0.1,0,0.1c0,0.1,0-0.1,0,0c0,0.1,0.1,0.2,0.1,0.4c0,0.1,0,0,0,0
							c0.1,0.3,0.1,0.2,0.3,0.5c0,0,0-0.1-0.1-0.2c0.1,0.3,0.3,0.6,0.4,1c0.1,0.3,0.3,0.7,0.4,0.9c0.1,0.2,0,0.1,0.1,0.3
							c0,0.1-0.1-0.1-0.2-0.3c0,0,0,0,0,0c-0.1-0.3-0.3-0.7-0.4-1c0.2,0.5,0.3,0.8,0.5,1.1c0,0,0,0,0,0.1c0.1,0.2,0-0.2,0.1,0
							c0,0.1,0.2,0.4,0.3,0.7c0,0.1,0,0,0-0.1c0.1,0.1,0.1,0.2,0.2,0.4c0,0,0-0.1-0.1-0.2c0,0,0.1,0.1,0.1,0.2c0,0,0-0.1-0.1-0.1
							c0,0,0.1,0.2,0.2,0.3c0,0.1,0.1,0.3,0.2,0.3c0.2,0.3,0.4,0.7,0.6,1c0.2,0.3,0.5,0.6,0.7,1l0,0c0.2,0.2,0.3,0.4,0.5,0.6
							c0.1,0.1,0.2,0.2,0.2,0.3c0.1,0.1,0.2,0.2,0.3,0.3c-0.3-0.3-0.7-0.8-1.1-1.3C6.7,39,6.5,38.8,6.3,38.5z M9.1,41.8
							C8.8,41.6,8.3,41,8,40.6c0.1,0.1,0.3,0.4,0.6,0.6C8.8,41.4,9,41.6,9.1,41.8z M7.9,38.8c-0.1-0.1-0.2-0.3-0.4-0.6
							C7.5,38.3,7.7,38.6,7.9,38.8z M4,34.2c0,0,0-0.1-0.1-0.2l0,0L4,34.2z M5,33.2c-0.1-0.1-0.1-0.4-0.2-0.5
							C4.9,32.8,5,33.1,5,33.2z M3.9,33.5C3.8,33.4,3.9,33.4,3.9,33.5C4,33.7,3.9,33.5,3.9,33.5z M3.8,33.4c0,0,0-0.1-0.1-0.2
							c0,0,0-0.1,0-0.1C3.8,33.3,3.8,33.3,3.8,33.4z M4.8,32.8c0,0-0.1-0.3-0.1-0.3C4.7,32.7,4.7,32.7,4.8,32.8z M4.3,31.2
							c0-0.1-0.1-0.3-0.1-0.4C4.2,30.7,4.4,31.2,4.3,31.2z M3,31.6c0,0-0.1-0.3-0.1-0.4C3,31.3,3,31.5,3,31.6z M4.3,31
							c0,0-0.1-0.4-0.1-0.5c0-0.2,0,0.1,0-0.1C4.3,30.6,4.3,30.8,4.3,31z M1.7,30.9c0,0,0-0.2-0.1-0.2c0-0.1,0-0.1,0-0.2
							C1.6,30.5,1.6,30.8,1.7,30.9z M1.5,30.3c0-0.3-0.1-0.5-0.1-0.8C1.4,29.7,1.5,30.1,1.5,30.3z M1.4,30.2c0-0.2-0.1-0.3-0.1-0.4
							C1.3,29.8,1.4,30.3,1.4,30.2z M1.5,30.1c0,0-0.1-0.2-0.1-0.4C1.4,29.8,1.5,30,1.5,30.1z M1.3,29.2c0-0.1-0.1-0.3-0.1-0.5
							c0,0,0,0.2,0,0.3c0,0,0-0.2,0-0.3C1.3,28.8,1.3,29,1.3,29.2z M1.1,27.2c0,0,0-0.5,0-0.6C1.1,26.7,1.1,26.9,1.1,27.2z
							 M1.1,26.9c0-0.1,0-0.5,0-0.5c0,0,0,0.3,0,0.2C1.1,26.7,1.1,26.8,1.1,26.9z M2.3,26.5c0-0.5-0.1-0.7-0.1-1.2c0,0,0,0.3,0,0.2
							C2.2,25.9,2.3,26.2,2.3,26.5z M1,26.5c0-0.1-0.1-0.6,0-0.8C1,26,1,26.3,1,26.5z M1.1,26.2c0,0,0-0.2,0-0.3
							C1.1,26,1.1,26,1.1,26.2z M1.1,25.9c0-0.1,0-0.3,0-0.4c0-0.2,0-0.3,0-0.5c0,0.1,0,0.6,0,0.6C1.1,25.7,1.1,25.8,1.1,25.9
							C1.1,25.8,1,25.7,1.1,25.9z M3.6,24.4c0,0.1,0-0.2,0-0.3C3.7,24.1,3.6,24.3,3.6,24.4z M1.1,24.4c0-0.2,0-0.5,0-0.8
							c0-0.3,0-0.6,0.1-1c0,0,0,0.3-0.1,0.4c0,0,0-0.3,0.1-0.5c0-0.1,0,0.1,0.1,0c0,0.2,0,0.4-0.1,0.5c0,0.2,0,0.3,0,0.5
							C1.1,23.8,1.1,24.1,1.1,24.4z M2.5,23.2c0,0,0-0.3,0.1-0.6C2.5,22.6,2.5,22.9,2.5,23.2z M2.5,22.4c0,0,0.1-0.9,0-0.2
							C2.5,22.3,2.5,22.3,2.5,22.4z M1.3,21.7c0,0,0-0.3,0.1-0.4C1.4,21.4,1.3,21.5,1.3,21.7z M1.4,21.3c0,0,0-0.2,0-0.3
							c0,0,0,0.1,0,0.1L1.4,21.3z M1.6,19.8c0,0,0-0.2,0-0.2c0-0.1,0,0,0-0.1c0-0.2,0-0.1,0-0.1C1.7,19.7,1.7,19.7,1.6,19.8z
							 M1.8,19.3C1.8,19.2,1.8,19.2,1.8,19.3c0,0,0-0.2,0.1-0.3C1.8,19,1.8,19.1,1.8,19.3z M2.1,17.9c0-0.1,0.1-0.2,0.1-0.4
							C2.3,17.4,2.2,17.7,2.1,17.9z M2,17.6c0.1-0.2,0.2-0.4,0.2-0.4C2.1,17.4,2,17.6,2,17.6z M2.2,17.6C2.2,17.5,2.3,17.2,2.2,17.6
							c0-0.1,0.1-0.4,0.2-0.6C2.3,17.1,2.3,17.2,2.2,17.6z M5,17.9C5,17.8,5,17.9,5,17.9c0.1-0.4,0.2-0.5,0.3-0.8
							C5.3,17.2,5.1,17.6,5,17.9z M2.2,17.1c-0.1,0.1,0.1-0.5,0.1-0.4C2.3,16.9,2.3,17,2.2,17.1z M2.4,17c0,0,0.1-0.4,0.2-0.5
							C2.5,16.7,2.5,16.8,2.4,17z M5.3,17c0,0,0.1-0.3,0.1-0.3C5.5,16.7,5.4,16.9,5.3,17z M2.7,16.1c0,0,0.1-0.2,0.1-0.3
							C2.8,15.9,2.7,16,2.7,16.1z M3.1,15c0.2-0.4,0.3-0.7,0.4-0.9c0,0,0,0.1,0,0.1c-0.1,0.1-0.2,0.4-0.2,0.3
							C3.4,14.5,3.2,14.8,3.1,15z M3.2,14.9c0.1-0.1,0.1,0,0,0.2c0-0.2-0.1,0.2-0.2,0.3C3.1,15.1,3.1,15.1,3.2,14.9z M3.4,14.3
							c0.1-0.2,0.1-0.2,0.2-0.4C3.5,14,3.5,14.1,3.4,14.3z M8,12.5C8,12.5,8,12.4,8,12.5c0.1-0.2,0.2-0.2,0.3-0.4
							C8.3,12.1,8.1,12.4,8,12.5z M5.8,10.6c0.1-0.1,0.2-0.3,0.3-0.4C6.3,10,6.4,9.9,6.5,9.7l0,0C6.3,9.9,6.1,10.3,5.8,10.6z
							 M8.6,11.7c0.1-0.1,0.2-0.2,0.3-0.3C8.9,11.4,8.6,11.8,8.6,11.7z M6.5,9.6C6.6,9.5,7,9.1,7.1,8.9c0.1-0.2,0.3-0.4,0.6-0.7
							C7.6,8.4,7.3,8.7,7.3,8.8C7,9.1,6.7,9.5,6.5,9.6z M6.7,9.6c0,0,0.2-0.3,0.3-0.3C7,9.3,6.9,9.4,6.7,9.6
							C6.7,9.5,6.7,9.5,6.7,9.6z M7.1,9.2c0,0,0.2-0.2,0.3-0.4c0,0,0.1,0,0.1,0C7.3,8.9,7.2,9.1,7.1,9.2z M9.9,10.5
							c0.1-0.1,0.2-0.2,0.3-0.3C10.1,10.3,10,10.4,9.9,10.5z M7.3,8.6c0,0,0.2-0.2,0.2-0.3c-0.1,0.1,0,0,0.1-0.1
							C7.7,8.3,7.4,8.5,7.3,8.6z M7.6,8.5L7.6,8.5l0.2-0.2C7.8,8.2,7.7,8.4,7.6,8.5z M10.2,10.2c0,0,0.1-0.1,0.2-0.2
							C10.4,10,10.3,10.1,10.2,10.2z M10.3,10c0,0,0.1-0.1,0.2-0.2C10.4,9.9,10.3,10,10.3,10z M10.5,9.7c0,0,0.1-0.1,0.2-0.2
							C10.8,9.5,10.6,9.6,10.5,9.7z M11,9.3C10.9,9.4,10.9,9.3,11,9.3c0,0-0.2,0.1-0.1,0.1C10.9,9.3,10.9,9.3,11,9.3
							C11,9.2,11,9.2,11.1,9.2C11.1,9.2,10.9,9.3,11,9.3z M8.8,7.1C8.8,7.1,8.9,7,9,7C9,7,8.9,7.1,9,7C9,7.1,8.8,7.2,8.8,7.1
							c0.1-0.1,0,0,0.2-0.2C9,7,8.9,7.1,8.8,7.1z M11.4,9.1c0,0,0.2-0.2,0.2-0.2C11.5,9,11.4,9.1,11.4,9.1z M11.3,9
							c0,0,0.1-0.1,0.1-0.1c0.1,0,0.1-0.1,0.1-0.1C11.5,8.9,11.4,8.9,11.3,9z M9.6,6.5C9.7,6.4,9.7,6.4,9.6,6.5
							C9.7,6.4,9.8,6.3,9.6,6.5c0.1-0.1,0.2-0.2,0.2-0.1C9.8,6.4,9.8,6.4,9.6,6.5C9.7,6.4,9.7,6.4,9.6,6.5z M10,6.2
							C10,6.2,10,6.2,10,6.2C9.9,6.3,9.8,6.3,10,6.2z M12.5,8.2C12.5,8.2,12.4,8.2,12.5,8.2c0-0.1,0,0,0.2-0.2c0,0,0,0,0.1-0.1
							C12.7,8,12.6,8.1,12.5,8.2z M10.9,5.7c0.2-0.1,0.5-0.4,0.8-0.6c0.3-0.2,0.6-0.4,0.8-0.5c-0.1,0.1-0.3,0.3-0.7,0.5
							C11.6,5.2,11.2,5.5,10.9,5.7z M11.4,5.3L11.4,5.3c0.1-0.1,0.2-0.2,0.3-0.2C11.7,5.1,11.6,5.2,11.4,5.3z M11.8,5L11.8,5
							C11.9,4.9,12,4.9,12,4.9L11.8,5z M12,4.8C12,4.8,12,4.7,12,4.8c0.2-0.2,0.1,0,0.3-0.2C12.2,4.6,12.1,4.7,12,4.8
							C12,4.7,12,4.7,12,4.8z M13,4.3c0,0,0.3-0.2,0.4-0.3C13.4,4.1,13.2,4.2,13,4.3z M16.8,5.9c0.1,0,0.2-0.1,0.3-0.2
							C17.1,5.7,16.9,5.8,16.8,5.9z M20.8,1.4c0.3,0,0.3,0,0.2,0c-0.1,0-0.4,0.1-0.7,0.2c0.1,0,0.2,0,0.3-0.1c0,0-0.3,0.1-0.3,0.1
							c-0.1,0-0.1,0-0.1,0c-0.6,0.1-0.6,0.1-1.2,0.3c-0.1,0-0.3,0.1-0.4,0.1c-0.2,0,0.2,0,0,0c-0.4,0.1-0.4,0.1-0.8,0.2
							c0,0,0.4-0.1,0.3-0.1c-0.3,0.1-0.5,0.2-0.7,0.2c0,0,0,0,0,0c-0.2,0-0.2,0.1-0.2,0.1c-0.3,0.1-0.4,0.1-0.5,0.1
							c0.1-0.1,0.5-0.2,0.8-0.3C18,2.2,18.3,2.1,18.5,2c0.4-0.1,0.7-0.2,1-0.3c0.3-0.1,0.7-0.2,1-0.2c0,0-0.2,0-0.2,0
							C20.3,1.5,20.7,1.4,20.8,1.4C20.9,1.4,20.9,1.4,20.8,1.4z M18.6,5.3c0,0,0.2-0.1,0.3-0.1C18.9,5.2,18.8,5.3,18.6,5.3z
							 M18.8,5.3c0,0,0.2-0.1,0.2-0.1L18.8,5.3z M18.6,4.9c0.1,0,0.5-0.2,0.5-0.1C18.9,4.8,18.8,4.8,18.6,4.9z M19,5.2
							c0.3-0.1,0.7-0.2,1-0.3c-0.1,0-0.1,0.1-0.1,0.1c-0.3,0.1-0.5,0.1-0.7,0.2C19.1,5.1,19.1,5.1,19,5.2z M17.9,2.3
							c0,0,0.3-0.1,0.5-0.2C18.3,2.2,18.2,2.2,17.9,2.3z M19.3,4.8C19.3,4.8,19.3,4.8,19.3,4.8c0.2-0.1,0.1,0,0.3-0.1
							C19.6,4.7,19.4,4.8,19.3,4.8z M19.4,4.7L19.4,4.7c0.2-0.1,0.4-0.1,0.7-0.2C19.9,4.6,19.6,4.7,19.4,4.7z M20.1,4.5
							c0.4-0.1,0.8-0.2,1.3-0.3c0,0,0,0,0,0c-0.3,0-0.8,0.1-0.8,0.2c-0.1,0-0.1,0-0.1,0c-0.1,0-0.1,0,0,0
							C20.2,4.5,20.2,4.5,20.1,4.5z M19.2,2c0,0,0.2,0,0.3-0.1C19.4,1.9,19.3,2,19.2,2z M19.8,2c0.6-0.2,1.7-0.4,2.3-0.5
							c0.1,0-0.1,0-0.2,0c0.1,0,0.3,0,0.4,0c0,0-0.1,0-0.1,0c0,0,0.3,0,0.4,0c-0.4,0.1-0.8,0.1-1.2,0.2c-0.2,0-0.5,0.1-0.7,0.1
							C20.5,1.9,20.2,1.9,19.8,2C19.9,2,19.9,2,19.8,2z M19.8,1.6c0.1,0,0.2-0.1,0.3-0.1c0,0,0.1,0,0.1,0C20,1.6,20,1.6,19.8,1.6z
							 M21.5,4.2c0,0,0.2-0.1,0.4-0.1c0,0-0.1,0,0,0C21.7,4.2,21.6,4.2,21.5,4.2z M21.1,1.4C21.1,1.4,21.2,1.4,21.1,1.4
							c0.4-0.1,0.5-0.1,0.9-0.2C21.8,1.3,21.5,1.4,21.1,1.4z M22.9,1.1c-0.1,0-0.2,0-0.3,0C22.8,1.1,22.9,1.1,22.9,1.1
							c0.2,0,0.3,0,0.5-0.1c0.3,0,0.6,0,0.9-0.1c0.6,0,1.2,0,1.8,0c0.1,0,0,0,0.1,0c0.1,0,0.3,0,0.4,0c0,0-0.3,0-0.5,0
							c0,0,0,0,0.1,0c-0.3,0-0.7,0-1.2,0c-0.2,0-0.5,0-0.7,0c-0.2,0-0.5,0-0.7,0.1c-0.2,0-0.4,0-0.5,0c-0.2,0,0,0,0,0
							c-0.2,0-0.3,0-0.4,0c-0.2,0-0.1,0-0.1,0c-0.3,0-0.5,0.1-0.7,0.1c-0.1,0,0.2,0,0.3,0c-0.2,0-0.6,0.1-0.8,0.1
							c-0.1,0,0.3-0.1-0.1,0c0.3-0.1,1-0.1,1.1-0.2c-0.2,0-0.5,0.1-0.8,0.1c-0.3,0-0.5,0.1-0.7,0.1C21.7,1.2,22.2,1.1,22.9,1.1
							L22.9,1.1z M21.3,1.5c0,0,0.1-0.1,0.2-0.1C21.6,1.5,21.4,1.5,21.3,1.5z M21.9,1.4C21.9,1.4,21.9,1.4,21.9,1.4
							c0.7-0.1,0.8-0.1,1.4-0.2c0.1,0-0.2,0-0.5,0.1C22.5,1.4,22,1.4,21.9,1.4C21.6,1.5,21.6,1.5,21.9,1.4z M22.2,1.3
							c0,0,0.2,0,0.2-0.1c0.1,0,0.5-0.1,0.5,0C22.8,1.2,22.6,1.2,22.2,1.3z M24.6,1.3c0,0,0.1,0,0.1,0C24.7,1.3,24.5,1.3,24.6,1.3
							c0,0,0.3,0,0.5,0c-0.2,0-0.9,0-1.1,0.1c-0.1,0,0,0,0,0c-0.1,0-0.1,0-0.2,0c-0.2,0,0.2,0,0.1,0c-0.5,0-0.6,0-0.8,0.1
							c-0.2,0,0,0-0.4,0c0,0,0.4-0.1,0.5-0.1c-0.2,0-0.8,0.1-0.8,0.1c0.2,0,0.4,0,0.6-0.1c0.2,0,0.4,0,0.6-0.1c0.2,0,0.4,0,0.6,0
							c0.2,0,0.4,0,0.6,0C24.9,1.3,24.8,1.3,24.6,1.3z M23,1.2C22.8,1.2,23.2,1.1,23,1.2c0,0,0.1,0,0.2,0C23.2,1.2,23,1.2,23,1.2z
							 M23.3,1.1c0.2,0,0.6-0.1,0.9-0.1c0.3,0,0.5,0,0.3,0C24.2,1.1,23.8,1.1,23.3,1.1z M24.4,1.6C24.3,1.6,24.4,1.6,24.4,1.6
							c0,0,0.4,0,0.6,0C25,1.6,24.5,1.5,24.4,1.6z M25,1.5l0.3,0c0,0-0.1,0,0,0c0,0-0.2,0-0.2,0C25,1.6,25,1.6,25,1.5z M24.6,1.1
							c0.2,0,0.5,0,0.9,0c0.4,0,0.8,0,1.1,0c-0.4,0-1.1,0-1.7,0C24.9,1,24.7,1.1,24.6,1.1z M26.7,1.6c0.1,0,0.5,0,0.6,0.1
							c0.1,0,0.2,0,0.4,0c0,0,0.2,0,0.1,0c-0.1,0-0.1,0-0.2,0c-0.1,0-0.1,0,0,0c-0.6,0-0.9-0.1-1.4-0.1c0.1,0,0.3,0,0.4,0
							c0,0-0.3,0-0.4,0c0,0-0.2,0-0.1,0c0,0,0.3,0,0.5,0c-0.2,0-0.7,0-0.8,0c0,0,0.1,0-0.1,0c0,0-0.3-0.1-0.6,0c0,0,0.1,0,0.1,0
							c0.3,0,0.8,0,1.3,0c0.5,0,1.1,0.1,1.5,0.1c0,0-0.1,0-0.1,0c0.2,0,0.2,0,0.4,0v0c0.1,0,0.1,0,0.2,0c0.1,0-0.1,0,0.1,0l0.3,0
							c0,0,0,0,0.1,0c-0.1,0-0.2,0-0.4,0c0,0,0.1,0,0.1,0c-0.1,0-0.3,0-0.5-0.1c-0.1,0-0.1,0-0.1,0C27.6,1.7,27.3,1.6,26.7,1.6z
							 M26.9,1c0.1,0-0.1,0-0.1,0c-0.3,0-0.4,0-0.8,0c0.3,0-0.8,0-0.8,0c0.3,0,0.6,0,0.9,0C26.4,1,26.7,1,26.9,1z M26.7,1
							c0,0,0.3,0,0.3,0C26.9,1,26.8,1,26.7,1z M27,1.1c0,0,0.1,0,0.3,0c0,0-0.1,0-0.1,0c0.5,0.1,1,0.1,1.1,0.1
							c-0.4-0.1-0.6,0-0.9-0.1c-0.1,0-0.1,0-0.2,0c0.1,0,0.1,0,0.3,0C27.5,1.1,27.3,1.1,27,1.1z M29,1.2c0,0,0.4,0,0.3,0
							C29.2,1.3,29.1,1.3,29,1.2C29,1.3,29,1.2,29,1.2z M30.1,4.7c0.1,0,0.3,0.1,0.5,0.1c0,0-0.3-0.1-0.3,0
							C30.1,4.8,30.2,4.8,30.1,4.7z M31.7,5.1c0.3,0.1,0.6,0.2,0.9,0.3c0.2,0.1,0.1,0.1,0.3,0.1c0,0-0.2,0,0,0
							c-0.3-0.1-0.4-0.1-0.7-0.2c-0.1,0-0.1,0,0,0C32,5.2,31.8,5.1,31.7,5.1z M33.2,2.4c0,0,0.2,0.1,0.3,0.1
							C33.5,2.5,33.2,2.4,33.2,2.4z M33.4,2.3c0,0,0.3,0.1,0.4,0.1C33.8,2.5,33.6,2.4,33.4,2.3z M35.5,3.2c-0.2-0.1,0.1,0,0.3,0.1
							C35.8,3.4,35.5,3.2,35.5,3.2z M36.2,6.6c0.2,0.1,0.4,0.2,0.3,0.1c0.4,0.2,0.4,0.3,0.1,0.2C36.5,6.8,36.2,6.7,36.2,6.6z
							 M38.8,5.8c0,0,0.1,0.1,0.2,0.2c0,0,0.1,0.1,0,0.1C39,5.9,38.9,5.8,38.8,5.8z M40.6,9.9c0-0.1,0.2,0.1,0.3,0.2
							c0,0-0.1-0.2,0.1,0c0.1,0.1,0.2,0.2,0.3,0.3c0,0.1,0,0.1-0.1,0C41,10.2,40.8,10,40.8,10C40.8,10,40.7,9.9,40.6,9.9z M41.7,9.1
							c0,0,0.2,0.2,0.2,0.2C41.9,9.3,41.8,9.3,41.7,9.1C41.8,9.2,41.7,9.2,41.7,9.1z M41.4,10.5c0.1,0.1,0.1,0.1,0.1,0.2
							c0,0-0.1,0-0.1,0C41.4,10.6,41.4,10.5,41.4,10.5z M42.8,9.1c0,0,0.3,0.3,0.2,0.3C43,9.2,42.9,9.2,42.8,9.1z M44.3,11L44.3,11
							C44.4,11.1,44.5,11.2,44.3,11C44.4,11,44.3,10.9,44.3,11z"/>
						<path class="st2" d="M3.7,27.3c0,0.1,0,0.3,0,0.4s0,0.3,0.1,0.4c0,0,0,0.1,0,0.2c0-0.1,0-0.3-0.1-0.5
							C3.7,27.6,3.7,27.4,3.7,27.3c0,0,0,0.1,0,0.2c0,0.1,0-0.5,0-0.4C3.7,27.3,3.7,27.4,3.7,27.3z"/>
						<path class="st2" d="M0.7,26.5c0-0.1,0-0.1,0-0.2c0-0.3,0-0.6,0-0.8c0-0.1,0-0.1,0-0.1c0-0.4,0-0.7,0-1c0-0.3,0-0.6,0-0.9
							c0,0.2,0.1-0.6,0-0.4c0.1-0.4,0.1-0.9,0.2-1.5c0.1-0.5,0.1-1,0.2-1.4C1.1,20.5,1,21.1,1,21.3c0-0.1-0.1,0.3,0,0.3h0
							c-0.2,1.3-0.3,2.7-0.3,4c0,1.3,0.1,2.6,0.3,3.8c0.1,0.2,0.2,1.1,0.3,1.3c0.1,0.3,0.1,0.4,0.2,0.8c-0.1-0.1,0.1,0.4,0,0.3
							c0.1,0.3,0.2,0.6,0.2,0.7c-0.1-0.4-0.2-0.6-0.2-0.7c0.1,0.3,0.2,0.7,0.3,0.9C1.8,33,2,33.5,2,33.7c0,0,0.1,0.3,0.2,0.5
							c0,0,0-0.1,0,0c0.1,0.2,0.2,0.5,0.3,0.7c0-0.1-0.1-0.1,0-0.1c0.1,0.2,0.1,0.2,0.1,0.3c0,0-0.1-0.3-0.1-0.4
							c-0.1-0.1-0.3-0.8-0.3-0.9c0.1,0.2,0.1,0.3,0.2,0.5c0,0,0-0.1,0-0.1C2.2,34,2.2,34,2.1,33.8c0,0,0.1,0.2,0.1,0.2
							c-0.1-0.2-0.1-0.1-0.1-0.3c0-0.1,0.1,0.2,0,0C2.1,33.6,2,33.4,2,33.3c0,0.1-0.1-0.3-0.2-0.4C1.9,33,2,33.2,1.9,33
							c0-0.1-0.1-0.2-0.1-0.5c0,0,0,0,0-0.1c0.1,0.3,0.1,0.2,0,0.1c-0.1-0.4-0.2-0.8-0.3-1c0,0.1,0,0.1,0,0.2
							c-0.1-0.4,0-0.3-0.1-0.4c-0.1-0.3,0-0.2,0-0.4c0,0.1-0.1-0.3-0.1-0.2c0,0.1,0.1,0.4,0.1,0.3c-0.1-0.4-0.1-0.4-0.2-0.8
							c0,0,0-0.1,0-0.1c0,0.2,0.1,0.4,0.1,0.5c-0.1-0.3-0.1-0.5-0.2-0.7c0-0.2-0.1-0.4-0.1-0.4c0-0.2,0-0.1,0,0
							c-0.1-0.3-0.1-0.5-0.1-0.7c0,0.1,0,0.1,0,0.1c0-0.2,0-0.3-0.1-0.5c0-0.1-0.1-0.3-0.1-0.6c0-0.3,0-0.6,0-0.8c0-0.1,0-0.2,0-0.4
							c0-0.2,0-0.4,0-0.6C0.8,26.1,0.8,26.5,0.7,26.5c0,0,0-0.4,0-0.6c0,0,0,0.3,0,0.2C0.8,25.3,0.7,26.2,0.7,26.5z M1.8,32.8
							L1.8,32.8c-0.1-0.2,0-0.1-0.1-0.2C1.7,32.5,1.8,32.7,1.8,32.8z M1.7,32.3c-0.1-0.2-0.2-0.4-0.2-0.8l0,0c0,0.1,0,0.3,0.1,0.3
							c0,0.2,0-0.1,0-0.1C1.6,31.9,1.6,32,1.7,32.3z M1.1,29.4c0-0.1-0.1-0.6-0.1-0.7C1,28.9,1,29.3,1.1,29.4z M1,29.1
							C1,29,1,28.7,1,28.5C1,28.6,1,28.8,1,29.1z M0.9,28.6c0-0.1,0-0.2-0.1-0.4C0.9,28.2,0.9,28.5,0.9,28.6z M1,28.3
							c0,0,0-0.1,0-0.2C0.9,28.1,0.9,28.2,1,28.3z M0.9,28.2c-0.1-0.1-0.1-0.8,0-0.7C0.9,27.7,0.9,27.9,0.9,28.2z M0.8,27.6
							c0,0.1,0-0.3,0-0.5C0.8,27.2,0.8,27.5,0.8,27.6z M0.9,27.4C0.9,27.4,0.8,27.2,0.9,27.4c-0.1-0.3-0.1-0.3-0.1-0.8
							C0.8,26.7,0.8,27,0.9,27.4z"/>
						<path class="st2" d="M36.3,45.4c-0.1,0-0.4,0.2-0.4,0.2C36.1,45.5,36.1,45.5,36.3,45.4z"/>
						<path class="st2" d="M36.6,47.4c0,0-0.6,0.3-0.8,0.4c-0.1,0,0.1-0.1,0.3-0.1C36.3,47.5,36.5,47.4,36.6,47.4z"/>
						<path class="st2" d="M32.2,47.5c-0.1,0-0.1,0.1-0.3,0.1c0,0-0.2,0-0.2,0C31.9,47.6,32,47.6,32.2,47.5z"/>
						<path class="st2" d="M29.6,48.5c0.2,0,0.1,0,0.3,0C29.9,48.4,29.6,48.5,29.6,48.5C29.6,48.5,29.6,48.5,29.6,48.5
							C29.4,48.5,29.5,48.5,29.6,48.5z"/>
						<path class="st2" d="M23.5,49.1c0,0-0.1,0-0.2,0C22.4,49,23.3,49.2,23.5,49.1z"/>
						<path class="st2" d="M23.2,49.3C23.3,49.3,23.2,49.3,23.2,49.3c-0.2,0-0.4,0-0.6-0.1C22.8,49.2,23.1,49.3,23.2,49.3z"/>
						<path class="st2" d="M22.1,50.2C22.1,50.3,22.1,50.2,22.1,50.2c0.4,0,0.7,0.1,1.1,0.1c0,0-0.3,0-0.4,0c0.2,0,0.2,0,0.5,0
							c0.1,0,0,0,0.1,0c-0.5,0-0.4,0-1.1-0.1c0.2,0-0.3-0.1-0.3-0.1c0,0-0.2,0-0.4-0.1c-0.2,0,0.1,0-0.1,0c-0.2,0-0.7-0.1-0.6-0.1
							c-0.1,0-0.1,0-0.1,0c-0.1,0,0.1,0-0.2,0c0.2,0-0.1,0-0.2-0.1c0.3,0,1.1,0.2,1.5,0.2C22,50.2,22,50.2,22.1,50.2z"/>
						<path class="st2" d="M23.2,49.7c0.1,0-0.4-0.1-0.7-0.1C22.7,49.6,23,49.7,23.2,49.7z"/>
						<path class="st2" d="M22.4,49.1c-0.1,0-0.3,0-0.5-0.1c0,0,0.3,0,0.3,0C22.2,49.1,22.2,49.1,22.4,49.1z"/>
						<path class="st2" d="M17.6,47.7c-0.1,0-0.4-0.1-0.6-0.2C17.2,47.6,17.4,47.7,17.6,47.7z"/>
						<path class="st2" d="M14.9,47.5c-0.1,0-0.4-0.2-0.5-0.2C14.5,47.3,14.8,47.5,14.9,47.5z"/>
						<path class="st2" d="M13.3,46.8c-0.1,0-0.4-0.2-0.4-0.2C12.8,46.6,13.2,46.8,13.3,46.8z"/>
						<path class="st2" d="M12,46.5c-0.1,0,0.2,0.2,0.4,0.3c-0.1,0-0.6-0.4-0.8-0.5c0.2,0.1,0.2,0.1,0.3,0.2c0.1,0.1,0,0,0-0.1
							C11.8,46.4,12,46.5,12,46.5z"/>
						<path class="st2" d="M12,42.8c-0.4-0.2-0.9-0.8-1.3-1c0,0-0.2-0.2-0.2-0.2c0.2,0.2,0.3,0.3,0.5,0.4c0.1,0.1,0.2,0.2,0.4,0.3
							C11.5,42.4,11.8,42.7,12,42.8z"/>
						<path class="st2" d="M10.5,44.8c0,0-0.1-0.1-0.2-0.2C10.2,44.5,10.5,44.8,10.5,44.8c0.1,0,0.2,0.1,0.1,0.1
							C10.6,44.9,10.6,44.9,10.5,44.8C10.6,44.9,10.6,44.9,10.5,44.8C10.5,44.8,10.5,44.8,10.5,44.8z"/>
						<path class="st2" d="M9.1,43.7c-0.1-0.1-0.2-0.2-0.2-0.2c0.2,0.2,0.2,0.2,0.4,0.3c0,0-0.1-0.1-0.1-0.1c0.2,0.2,0.7,0.6,1,0.9
							c0,0-0.1-0.1-0.2-0.1C10,44.4,9.3,43.8,9.1,43.7z"/>
						<path class="st2" d="M8.4,43.5c-0.1-0.1-0.1-0.1-0.3-0.2c0,0,0.1,0,0.1,0.1c-0.2-0.2-0.4-0.3-0.5-0.5
							c-0.2-0.2-0.4-0.4-0.6-0.6c-0.4-0.4-0.8-0.9-1.1-1.3c-0.2-0.3-0.5-0.6-0.5-0.7c0,0,0,0,0,0c0.3,0.3,0.7,0.8,0.6,0.9
							c0,0-0.1-0.1-0.2-0.2c-0.1-0.1,0.1,0.1,0,0c-0.1-0.1-0.1-0.2-0.2-0.3c-0.1-0.1-0.2-0.2-0.2-0.3c0,0,0,0,0-0.1
							c0,0.1-0.2-0.3-0.3-0.3c0,0.1,0.3,0.4,0.3,0.5c0,0,0.1,0.1,0.2,0.2c0,0,0,0,0,0.1c0,0,0.2,0.2,0.3,0.3c-0.1-0.1-0.1-0.1,0-0.1
							c0.2,0.2,0.4,0.5,0.6,0.8c0,0,0.2,0.2,0.3,0.4c0,0,0,0,0.1,0C7,42.2,7,42.2,7.1,42.3C7,42.2,6.8,42,6.9,42.2
							c0,0,0.1,0.1,0.1,0.2c0.1,0.1,0.1,0.2,0.2,0.2c-0.1-0.1-0.1-0.1-0.1-0.1c0.1,0.1,0.1,0.1,0.3,0.3c0,0,0,0,0.1,0.1
							c0.1,0.1,0.2,0.2,0.4,0.4c0.1,0.1,0.2,0.2,0.2,0.3C8.2,43.4,8.3,43.5,8.4,43.5c-0.2-0.1-0.2-0.1-0.2-0.1
							c0.3,0.2,0.4,0.3,0.7,0.6c0.1,0,0.2,0.1,0.3,0.2c-0.1-0.1-0.2-0.2-0.4-0.4C8.6,43.7,8.4,43.6,8.4,43.5z M6.7,41.8
							C6.8,41.9,6.8,41.9,6.7,41.8c0,0-0.1-0.1-0.2-0.2C6.5,41.6,6.8,41.9,6.7,41.8z"/>
						<path class="st2" d="M10.4,41.4c0.1,0.1-0.2-0.2-0.3-0.3C10.1,41.2,10.3,41.3,10.4,41.4C10.4,41.4,10.2,41.3,10.4,41.4z"/>
						<path class="st2" d="M7.9,42.4c0.1,0.1,0.1,0,0.2,0.2c0,0.1,0.1,0.1,0.1,0.2c0,0-0.1-0.1-0.1-0.1c0-0.1-0.3-0.3-0.3-0.4
							C7.9,42.4,7.9,42.4,7.9,42.4z"/>
						<path class="st2" d="M7.8,42.3C7.8,42.3,7.7,42.2,7.8,42.3c-0.1-0.1-0.2-0.2-0.2-0.2c-0.1-0.1,0.1,0,0.1,0.1
							C7.7,42.2,7.7,42.2,7.8,42.3z"/>
						<path class="st2" d="M9.3,40.2C9.2,40.1,9.2,40.1,9.3,40.2c-0.1-0.1-0.3-0.4-0.4-0.5c0,0,0.1,0.1,0.3,0.3
							C9.2,40.1,9.3,40.2,9.3,40.2C9.3,40.2,9.3,40.2,9.3,40.2z"/>
						<path class="st2" d="M8.8,39.6c0.1,0-0.2-0.2-0.2-0.4c0,0-0.4-0.4-0.6-0.8C8,38.6,8.2,38.8,8.4,39C8.6,39.2,8.7,39.5,8.8,39.6
							C8.9,39.8,9,39.8,9.1,40c-0.1-0.1-0.3-0.4-0.5-0.6c-0.2-0.2-0.4-0.5-0.5-0.6C8.2,38.9,8.6,39.4,8.8,39.6z"/>
						<path class="st2" d="M6.2,40.5C6.3,40.6,6.2,40.5,6.2,40.5L6,40.2c0.1,0.1,0,0,0-0.1c-0.1-0.2,0,0-0.2-0.2
							c0,0,0.1,0.1,0.1,0.1c-0.1-0.2-0.3-0.4-0.4-0.5c0.1,0.1,0.1,0.2,0.2,0.3c0,0,0.1,0.1,0.1,0.1c0,0,0.1,0.1,0.1,0.2
							c0,0-0.1-0.1-0.1-0.1C5.9,40.1,6.1,40.4,6.2,40.5z"/>
						<path class="st2" d="M7.8,38.3c0,0-0.1-0.1-0.1-0.2C7.7,38.1,7.8,38.2,7.8,38.3C7.7,38.2,7.8,38.3,7.8,38.3c0,0,0,0-0.1-0.2
							C7.6,38.1,7.7,38.3,7.8,38.3z"/>
						<path class="st2" d="M7.4,37.8c-0.1-0.1-0.2-0.3-0.2-0.4C7.2,37.5,7.3,37.7,7.4,37.8z"/>
						<path class="st2" d="M5.3,39.3c-0.1-0.1-0.1-0.2-0.1-0.2c-0.1-0.1,0,0,0,0L5,38.9c0.2,0.2,0-0.1,0-0.1
							C5.1,39,5.3,39.2,5.3,39.3z"/>
						<path class="st2" d="M4.5,38c0.1,0.2,0.2,0.3,0.3,0.4c0,0-0.1-0.1-0.1-0.1C4.6,38.2,4.4,37.9,4.5,38C4.6,38.1,4.5,38,4.5,38z"
							/>
						<path class="st2" d="M5.1,36.9c0,0,0.4,0.6,0.2,0.3C5.2,37.1,5.2,37.2,5.1,36.9z"/>
						<path class="st2" d="M5.1,36.9c-0.1-0.1-0.2-0.4-0.3-0.5C4.9,36.5,5,36.7,5.1,36.9z"/>
						<path class="st2" d="M3.7,36.5c0,0,0.1,0.2,0.1,0.2c-0.2-0.4-0.3-0.5-0.4-0.8c0.1,0.1,0,0,0.1,0.1l0.1,0.2c0,0,0-0.1-0.1-0.2
							C3.5,36,3.7,36.5,3.7,36.5z"/>
						<path class="st2" d="M3.2,35.7C3.1,35.5,3,35.3,2.9,35C3,35.2,3.1,35.5,3.2,35.7z"/>
						<path class="st2" d="M2.7,35.2c0.1,0.2,0,0.1,0.1,0.3C2.8,35.5,2.7,35.3,2.7,35.2C2.6,35.1,2.8,35.5,2.7,35.2z"/>
						<path class="st2" d="M2.9,35.1c0-0.1-0.1-0.4-0.2-0.5l0,0C2.7,34.3,3,35.1,2.9,35.1z"/>
						<path class="st2" d="M2.4,34.3C2.4,34.3,2.4,34.3,2.4,34.3c-0.1-0.2-0.1-0.2-0.1-0.4C2.2,33.7,2.3,34,2.3,34
							C2.3,34.1,2.3,34.1,2.4,34.3z"/>
						<path class="st2" d="M2.6,34.1c-0.1-0.1-0.1-0.4-0.2-0.5c0,0,0,0.1,0,0c-0.1-0.2,0-0.2-0.1-0.4c0-0.1,0,0,0-0.1
							c-0.1-0.2-0.1-0.3-0.1-0.2c0.1,0.3,0.1,0.3,0.2,0.6l0,0c0,0.1,0.1,0.2,0.1,0.3c0,0,0-0.1,0,0c0,0-0.1-0.3,0-0.2
							C2.5,33.7,2.6,33.9,2.6,34.1c-0.1-0.3,0-0.2,0-0.1c0-0.1,0-0.1-0.1-0.3C2.4,33.6,2.5,33.9,2.6,34.1z"/>
						<path class="st2" d="M2.2,34c0-0.2,0-0.2-0.1-0.3c0,0,0,0,0-0.1C2.1,33.5,2.3,33.9,2.2,34z"/>
						<path class="st2" d="M2.2,33c-0.1-0.2-0.1-0.3-0.1-0.4c0-0.1,0-0.1-0.1-0.2C2.1,32.6,2.1,32.8,2.2,33z"/>
						<path class="st2" d="M4.1,28.7C4.1,28.6,4,28.2,4,28C4.1,28.2,4.1,28.5,4.1,28.7z"/>
						<path class="st2" d="M2.5,28.3c0,0.1,0,0.2,0,0.1c0,0.3,0,0.4,0,0.1C2.5,28.4,2.6,28.3,2.5,28.3C2.5,28.2,2.5,28.3,2.5,28.3z"
							/>
						<path class="st2" d="M2.4,26.3C2.4,26.3,2.4,26.3,2.4,26.3c0-0.1,0-0.2,0-0.3C2.4,26,2.4,26.2,2.4,26.3z"/>
						<path class="st2" d="M3.9,25.8c0-0.1,0-0.3,0-0.5C3.9,25.4,3.9,25.6,3.9,25.8z"/>
						<path class="st2" d="M4.6,20l0,0.1c0,0,0,0,0,0c0-0.1,0-0.2,0.1-0.4C4.7,19.7,4.6,19.9,4.6,20z"/>
						<path class="st2" d="M5.2,18.1c0,0.1-0.2,0.5-0.1,0.3c-0.2,0.4-0.3,0.8-0.4,1.2c0.1-0.3,0.1-0.4,0.2-0.6
							c-0.1,0.3-0.2,0.5-0.2,0.8c0-0.1,0,0,0,0c0-0.1,0.1-0.3,0.1-0.3c0,0.1-0.1,0.4-0.1,0.5C5,18.6,5.4,17.6,6,16.4
							c0,0.1-0.1,0.2-0.1,0.3c0,0,0-0.1,0-0.1c0,0,0,0.1,0,0.1c0.1-0.2,0.2-0.5,0.1-0.3c0,0.1-0.1,0.3-0.2,0.4c0,0.1,0.1-0.1,0,0.1
							c-0.2,0.3-0.3,0.8-0.4,1c0.1-0.2,0.3-0.7,0.3-0.8c-0.1,0.3-0.2,0.6-0.3,0.8C5.3,17.9,5.3,18,5.2,18.1
							C5.2,18.2,5.2,18,5.2,18.1z M4.9,18.9c0,0,0.1-0.2,0.1-0.3C5,18.7,5,18.8,4.9,18.9z"/>
						<path class="st2" d="M4.5,19.6c0,0,0.1-0.2,0.1-0.3c0,0,0,0.1,0,0C4.6,19.4,4.5,19.5,4.5,19.6z"/>
						<path class="st2" d="M5.8,16.4c0-0.1,0.1-0.2,0.1-0.3C5.9,16,6,15.9,6.1,15.8C6,15.8,6,16,5.9,16.1
							C5.9,16.2,5.8,16.3,5.8,16.4z"/>
						<path class="st2" d="M6,16.1C5.9,16.1,5.9,16.1,6,16.1c0-0.1,0.1-0.4,0.2-0.3C6,15.9,5.9,16.1,6,16.1z"/>
						<path class="st2" d="M7.1,14.3C7.1,14.3,7,14.3,7.1,14.3c0-0.1,0.2-0.3,0.3-0.4C7.3,14,7.2,14.2,7.1,14.3z"/>
						<path class="st2" d="M4.4,12.5c-0.1,0.1-0.2,0.3-0.1,0.1C4.3,12.6,4.3,12.6,4.4,12.5z"/>
						<path class="st2" d="M7.4,13.6c0,0.1-0.1,0.1-0.1,0.2c0-0.1,0.1-0.2,0.2-0.4C7.5,13.3,7.3,13.6,7.4,13.6z"/>
						<path class="st2" d="M8.2,12.4c0.1-0.2,0.4-0.5,0.5-0.7C8.7,11.8,8.4,12.1,8.2,12.4z"/>
						<path class="st2" d="M8.6,11.9C8.6,12,8.6,11.9,8.6,11.9C8.7,11.9,8.6,12,8.6,11.9C8.5,12,8.7,11.8,8.6,11.9L8.6,11.9z"/>
						<path class="st2" d="M6.2,9.8C6.2,9.9,6.5,9.5,6.6,9.4C6.5,9.5,6.7,9.3,6.8,9.2C6.7,9.3,6.6,9.4,6.4,9.6
							C6.6,9.4,6.3,9.7,6.2,9.8z"/>
						<path class="st2" d="M6.2,8.9c0,0-0.1,0.2-0.2,0.2c0,0,0.2-0.2,0.3-0.4C6.3,8.8,6.3,8.8,6.2,8.9z"/>
						<path class="st2" d="M10.3,10.2c0-0.1,0.2-0.2,0.3-0.3C10.6,10,10.4,10.1,10.3,10.2z"/>
						<path class="st2" d="M12.3,4.4c0,0-0.1,0-0.2,0.1c0.1-0.1,0.2-0.1-0.1,0c0,0,0.3-0.2,0.4-0.3C12.5,4.2,12.2,4.5,12.3,4.4z"/>
						<path class="st2" d="M18.6,1.6c-0.2,0,0.4-0.1,0.5-0.2c0.1,0,0.3-0.1,0.4-0.1c0.1,0,0,0-0.1,0c-0.1,0-0.3,0.1-0.4,0.1
							c0,0,0.2,0,0.2,0C19,1.5,18.9,1.5,18.6,1.6z"/>
						<path class="st2" d="M20.5,1.2c-0.1,0-0.4,0.1-0.3,0.1C20.6,1.2,20.6,1.1,20.5,1.2C20.5,1.1,20.6,1.1,20.5,1.2
							C20.8,1.1,20.5,1.2,20.5,1.2z"/>
						<path class="st2" d="M21.5,0.9C21.5,1,21.7,1,21.5,0.9c-0.1,0.1,0.1,0-0.1,0C21.5,1,21.5,0.9,21.5,0.9c0.4-0.1,0.5-0.1,1-0.1
							c-0.1,0-0.2,0-0.3,0c0.1,0-0.2,0-0.4,0.1l0,0L21.5,0.9z"/>
						<path class="st2" d="M24,0.4c-0.1,0,0.2,0,0.3,0C24.1,0.4,23.5,0.4,24,0.4z"/>
						<path class="st2" d="M26.8,0.7c-0.1,0-0.9,0-0.2,0C26.6,0.7,26.7,0.7,26.8,0.7z"/>
						<path class="st2" d="M27.5,0.8c-0.2,0-0.4,0-0.7,0c0.1,0-0.1,0-0.1,0c0.2,0,0.4,0,0.5,0c0.1,0,0,0,0.1,0
							C27.3,0.7,27.5,0.7,27.5,0.8C27.7,0.7,27.3,0.7,27.5,0.8z"/>
						<path class="st2" d="M27.4,0.8c0.1,0,0.4,0,0.8,0c0.4,0,0.8,0.1,1.1,0.1c0.1,0,0,0,0.1,0c0.2,0,0.2,0,0.1,0.1
							c0.3,0,0.3,0,0.4,0.1c0.1,0,0.1,0,0.1,0c0.2,0,0.3,0.1,0.5,0.1c0.2,0,0.3,0.1,0.4,0.1c0.3,0.1,0.6,0.1,0.8,0.2
							c0.5,0.1,1,0.3,1.4,0.4c-0.2,0,0.2,0.1,0.1,0.1c0,0,0.1,0,0.2,0.1c0,0-0.2-0.1-0.2-0.1C33.6,2,33.7,2,33.8,2.1
							c-0.1,0-0.3-0.1-0.3-0.1c-0.2-0.1-0.4-0.1-0.6-0.2c-0.2-0.1-0.4-0.1-0.6-0.2c-0.2-0.1-0.4-0.1-0.6-0.2c-0.2,0-0.4-0.1-0.5-0.1
							c-0.4-0.1-0.7-0.2-1.2-0.2c-0.2,0-0.4-0.1-0.7-0.1c-0.2,0-0.5-0.1-0.7-0.1c-0.2,0-0.1,0-0.2,0c0,0-0.3,0-0.3,0
							c-0.1,0-0.2,0-0.2,0C27.8,0.8,27.5,0.8,27.4,0.8z"/>
						<path class="st2" d="M32.2,2.2c0,0,0.3,0.1,0.3,0.1c0,0-0.1,0-0.2-0.1c0.4,0,0.9,0.3,1.5,0.5c-0.2,0,1.1,0.5,1.2,0.5
							c0.2,0.1,0.1,0.1,0.2,0.1c0.1,0.1,0.2,0.1,0.4,0.1c0,0-0.1,0-0.1,0c0.2,0.1,0.3,0.2,0.5,0.3c0.1,0,0.2,0.1,0.4,0.2
							c-0.2-0.1,0,0,0.3,0.2c-0.3-0.1-0.4-0.2-0.8-0.3c0,0,0.1,0,0.1,0c-0.2-0.1-0.5-0.2-0.7-0.3c-0.1,0-0.1-0.1,0,0
							c-0.1,0-0.3-0.1-0.4-0.2C34.9,3.1,34.7,3,34.6,3c-0.1-0.1-0.2-0.1-0.4-0.2c0.1,0,0.2,0.1,0.3,0.1c0.1,0,0.1,0,0.1,0
							c-0.3-0.1-0.8-0.3-1.2-0.5c-0.2-0.1-0.5-0.2-0.7-0.2C32.6,2.3,32.4,2.2,32.2,2.2z"/>
						<path class="st2" d="M32.7,2.6c-0.1,0-0.4-0.1-0.5-0.2c0.2,0.1,0.5,0.2,0.7,0.2C33,2.6,32.7,2.6,32.7,2.6z"/>
						<path class="st2" d="M32.6,5.8C32.6,5.8,32.6,5.8,32.6,5.8c0.1,0,0.3,0.1,0.4,0.2c0,0,0,0,0.1,0.1c0,0-0.1,0-0.3-0.1
							C32.8,5.8,32.7,5.8,32.6,5.8z"/>
						<path class="st2" d="M34.6,2.7c-0.3-0.1-0.5-0.2-0.9-0.3c0,0,0.1,0,0.2,0c0,0-0.1,0-0.1,0c0.3,0.1,0.6,0.2,0.8,0.3
							C34.6,2.7,34.2,2.5,34.6,2.7z"/>
						<path class="st2" d="M35.3,3c-0.1-0.1,0.2,0.1,0.2,0.1C35.5,3.1,35.4,3,35.3,3C35.3,2.9,35.5,3.1,35.3,3z"/>
						<path class="st2" d="M35.7,3C35.6,3,35.7,3,35.7,3L35.7,3c0.1,0.1,0.7,0.3,0.7,0.3c-0.1-0.1-0.1-0.1-0.1-0.1
							C36,3.1,35.8,3,35.7,3z"/>
						<path class="st2" d="M37.9,3.6C38,3.7,38,3.7,38.2,3.8c-0.1-0.1-0.3-0.1-0.4-0.2C37.8,3.6,37.8,3.6,37.9,3.6
							c-0.3-0.1-0.3-0.1-0.5-0.2c0,0,0.1,0,0.2,0.1c-0.1,0-0.2-0.1-0.3-0.1c-0.1-0.1,0,0,0.1,0c-0.1,0-0.1-0.1-0.3-0.2
							c0,0,0.1,0.1,0.1,0C37.6,3.4,37.7,3.5,37.9,3.6z"/>
						<path class="st2" d="M36.9,4.5C36.8,4.5,36.9,4.5,36.9,4.5C36.9,4.5,36.8,4.5,36.9,4.5c0.1,0,0.1,0.1,0.3,0.1
							C37.3,4.8,36.9,4.5,36.9,4.5z"/>
						<path class="st2" d="M37.4,4.7c0.1,0,0.1,0,0.3,0.2C37.5,4.7,38,5,38.2,5.1c0,0,0.1,0.1,0.1,0c0.1,0.1,0.4,0.2,0.6,0.4
							c0.3,0.2,0.5,0.4,0.7,0.5c0.1,0,0.3,0.3,0.4,0.3c0.1,0.1,0,0,0.1,0.1c0.2,0.2,0.5,0.4,0.6,0.5c0.1,0.1-0.1,0,0.1,0.1
							c0.1,0.1-0.3-0.2-0.3-0.2c-0.2-0.2-0.3-0.3-0.5-0.4c-0.1-0.1-0.1-0.1-0.1,0c-0.3-0.2-0.3-0.2-0.5-0.4c0.1,0-0.1-0.1-0.3-0.3
							c-0.2-0.1-0.5-0.3-0.6-0.4C38.3,5.2,38.2,5.1,38,5C37.8,4.9,37.6,4.8,37.4,4.7z"/>
						<path class="st2" d="M38.7,4.9c0,0,0.2,0.1,0.3,0.2c0,0-0.1-0.1,0-0.1c0.3,0.2,0.4,0.3,0.6,0.4c-0.1,0,0.2,0.2,0.5,0.4
							c0.3,0.2,0.6,0.4,0.6,0.5c0,0,0.1,0.1,0.2,0.1c0.1,0.1,0.2,0.2,0.4,0.4C41.4,7,41.9,7.4,42,7.6c-0.1-0.1-0.4-0.3-0.3-0.3
							c-0.2-0.2-0.4-0.4-0.7-0.6c-0.3-0.2-0.5-0.4-0.8-0.6c-0.5-0.4-1.1-0.8-1.4-1c0.2,0.1,0.3,0.2,0.7,0.4
							c-0.3-0.2-0.3-0.2-0.7-0.4c0,0,0.3,0.2,0.2,0.2c-0.1,0-0.2-0.1-0.4-0.2c0.2,0.1-0.5-0.4-0.6-0.4c0,0,0.1,0.1,0.1,0
							c0.2,0.1,0.3,0.2,0.5,0.3c-0.1-0.1-0.2-0.2-0.4-0.3c-0.2-0.1-0.4-0.2-0.6-0.3c0.2,0.1,0.4,0.2,0.6,0.3
							c0.2,0.1,0.4,0.2,0.6,0.3c0.2,0.1,0.5,0.3,0.5,0.3c0.1,0.1,0.1,0.1,0.2,0.2c0.2,0.1,0,0,0.4,0.2c0.1,0,0.1,0.1,0.1,0
							c-0.1-0.1-0.6-0.4-0.5-0.4c-0.1-0.1-0.1,0-0.2-0.1c0,0,0.2,0.2,0.1,0.1c-0.1-0.1-0.2-0.2-0.2-0.2C39,5.1,39,5.1,38.7,4.9z"/>
						<path class="st2" d="M38,5.1c0,0,0.1,0.1,0.2,0.2c0,0.1,0,0-0.1,0C38.1,5.2,38.2,5.2,38,5.1z"/>
						<path class="st2" d="M40,6.4c0.2,0.1,0.4,0.3,0.6,0.5C40.6,6.9,40.1,6.5,40,6.4z"/>
						<path class="st2" d="M41,6.8c-0.1,0-0.5-0.4-0.8-0.6C40.5,6.4,40.8,6.7,41,6.8z"/>
						<path class="st2" d="M40.9,8.7C41.1,8.9,41,8.9,41.1,9C41.2,9.1,40.8,8.7,40.9,8.7z"/>
						<path class="st2" d="M42.9,13.3c0.1,0.2,0.1,0.2,0.2,0.3C43.1,13.6,42.9,13.3,42.9,13.3z"/>
						<path class="st2" d="M44,13.5c0,0,0.1,0.1,0.1,0.2C44.1,13.7,44.1,13.6,44,13.5C44,13.5,44.1,13.6,44,13.5z"/>
						<path class="st2" d="M43.8,14.7c0,0.1,0.2,0.3,0.2,0.4C43.9,14.9,43.9,14.9,43.8,14.7z"/>
						<path class="st2" d="M43.8,14.9c0.1,0.1,0.1,0.2,0.1,0.3C44.1,15.5,43.8,14.9,43.8,14.9z"/>
						<path class="st2" d="M46,18.1c0,0.1,0,0.1,0.1,0.2c0,0-0.2-0.4-0.2-0.4c0.1,0.2,0,0,0-0.1c0.1,0.1,0.1,0.3,0.1,0.1
							c0.1,0.2,0.1,0.4,0.1,0.5C46.1,18.2,46,18,46,18.1z"/>
						<path class="st2" d="M47.3,23.8C47.3,23.6,47.3,23.7,47.3,23.8c0-0.1,0,0.3,0,0.6c0,0,0,0.1,0,0.1c0-0.2,0-0.6-0.1-0.5
							c0-0.2,0-0.5-0.1-0.7c0-0.3-0.1-0.5-0.1-0.7c0,0.2,0,0.5,0.1,1c0,0,0,0.1,0,0.2c-0.1-0.3-0.1-0.9-0.2-1.4c0,0.1,0-0.1,0,0
							c0-0.3-0.1-0.8-0.1-1c0-0.1,0-0.1-0.1-0.3c0,0,0,0,0-0.1c-0.1-0.2-0.1-0.4-0.1-0.3c0-0.1-0.1-0.3-0.1-0.2c0-0.1,0-0.1,0-0.2
							c0-0.2,0,0-0.1-0.2c0-0.1-0.1-0.4-0.1-0.4c-0.1-0.2-0.1-0.6-0.1-0.7c0.1,0.3,0.2,0.6,0.3,0.9c0.1,0.3,0.1,0.7,0.2,1.1
							c0,0,0,0.3,0.1,0.6c0,0.1,0,0.1,0,0.1c0,0.2,0.1,0.3,0.1,0.5c0.1,0.5,0.2,0.9,0.3,1.7c0,0.1,0,0.1,0,0.3
							C47.4,24.1,47.4,23.9,47.3,23.8C47.3,23.8,47.3,23.8,47.3,23.8z"/>
						<path class="st2" d="M46.5,34.9C46.5,35,46.5,35,46.5,34.9c-0.1,0.3-0.1,0.4-0.2,0.6c0,0-0.1,0-0.1,0.1
							c-0.1,0.1,0.1-0.2-0.1,0.1c0,0,0.2-0.3,0.1-0.3C46.3,35.3,46.4,35.2,46.5,34.9z"/>
						<path class="st2" d="M10.6,45.6c-0.1-0.1-0.3-0.2-0.5-0.3c-0.1-0.1-0.1-0.1-0.1-0.1c-0.1,0-0.1-0.1-0.1-0.1
							c-0.2-0.1-0.3-0.2-0.4-0.3c-0.1-0.1-0.1-0.2-0.4-0.3c0.2,0.1,0.3,0.3,0.5,0.4c0.1,0.1,0.3,0.2,0.4,0.3
							c0.1,0.1,0.1,0.1,0.3,0.3c0.1,0.1,0.2,0.1,0.4,0.3c0,0,0,0,0.1,0.1c0,0-0.1,0-0.1,0C10.7,45.6,10.7,45.6,10.6,45.6z"/>
						<path class="st2" d="M2.8,34.9c0-0.1,0-0.1-0.1-0.2c0,0-0.1-0.3-0.2-0.5c0,0,0.1,0.3,0.2,0.5C2.8,34.8,2.8,34.8,2.8,34.9z"/>
						<path class="st2" d="M35.5,2.6c0,0-0.2-0.1-0.2,0c-0.1,0-0.4-0.2-0.4-0.2c-0.3-0.1-0.5-0.2-0.5-0.1c-0.3-0.1-0.7-0.2-1-0.3
							c-0.3-0.1-0.6-0.2-0.8-0.3c-0.2-0.1,0.1-0.1,0.6,0c0.4,0.1,0.7,0.2,1.1,0.4c0.3,0.1,0.6,0.3,0.9,0.4c0.2,0.1,0.7,0.3,1,0.5
							c-0.1,0,0,0,0,0c-0.2-0.1-0.6-0.3-0.6-0.2C35.5,2.6,35.5,2.6,35.5,2.6z"/>
					</g>
					<g>
						<path class="st0" d="M13.1,30.4c0,0.1-0.1,0.2-0.2,0.2H9.8c-0.1,0-0.2,0-0.2-0.2l0-4.7v-4.8c0-0.1,0.1-0.2,0.2-0.2h3
							c0.1,0,0.2,0,0.2,0.2l-0.1,1c0.7-0.9,1.8-1.4,3.1-1.4c2.2,0,3.5,1.5,3.5,3.7v2.2l0,4c0,0.1-0.1,0.2-0.2,0.2h-3.2
							c-0.1,0-0.2,0-0.2-0.2l0.1-4v-1.9c0-1-0.5-1.5-1.2-1.5c-1,0-1.8,1.1-1.8,3.1v0.3L13.1,30.4z"/>
						<path class="st0" d="M30.6,25.7c0,2.8-1.7,5.1-4.4,5.1c-1.1,0-2-0.4-2.6-1.1l0,4c0,0.1-0.1,0.2-0.2,0.2h-3.2
							c-0.1,0-0.2,0-0.2-0.2l0-6.9l0-5.8c0-0.1,0.1-0.2,0.2-0.2h3.1c0.1,0,0.2,0,0.2,0.2l0,1c0.7-0.8,1.7-1.3,2.9-1.3
							C29.1,20.6,30.6,22.8,30.6,25.7z M27.1,25.8c0-2-0.7-2.9-1.8-2.9c-1.2,0-1.8,0.9-1.8,2.8c0,1.9,0.6,2.9,1.8,2.9
							C26.5,28.5,27.1,27.7,27.1,25.8z"/>
						<path class="st0" d="M38,17.4c0-0.1,0.1-0.2,0.2-0.2h3.1c0.1,0,0.2,0,0.2,0.2l0,6.8l0,6.3c0,0.1-0.1,0.2-0.2,0.2h-3.1
							c-0.1,0-0.2,0-0.2-0.2l0-1c-0.7,0.8-1.7,1.3-2.9,1.3c-2.8,0-4.3-2.2-4.3-5.1c0-2.8,1.7-5.1,4.4-5.1c1.1,0,2,0.4,2.7,1.1
							L38,17.4L38,17.4z M38.1,25.7c0-2-0.6-2.9-1.8-2.9c-1.2,0-1.9,0.9-1.9,2.8c0,2,0.7,2.9,1.8,2.9C37.5,28.6,38.1,27.7,38.1,25.7
							z"/>
					</g>
				</g>
			</g>
			<g>
				<path class="st0" d="M44.4,6.1c0-0.9,0.5-1.4,1.4-1.4c0.8,0,1.4,0.6,1.4,1.4c0,0.8-0.6,1.4-1.4,1.4S44.4,6.9,44.4,6.1z
					 M46.8,6.1c0-0.7-0.4-1.1-1-1.1c-0.7,0-1,0.4-1,1.1c0,0.7,0.4,1.1,1,1.1C46.4,7.2,46.8,6.7,46.8,6.1z M45.5,6.7
					C45.5,6.8,45.5,6.8,45.5,6.7l-0.4,0.1c0,0-0.1,0-0.1-0.1V5.3c0,0,0-0.1,0.1-0.1h0.6c0.4,0,0.7,0.2,0.7,0.5
					c0,0.2-0.1,0.4-0.3,0.4l0.3,0.5c0,0,0,0.1,0,0.1H46c0,0-0.1,0-0.1,0l-0.3-0.5h-0.1L45.5,6.7L45.5,6.7z M45.5,5.6v0.3h0.2
					c0.1,0,0.2-0.1,0.2-0.2c0-0.1-0.1-0.2-0.2-0.2H45.5z"/>
			</g>
		</g>
	</g>
</g>
<g id="DONT_TOUCH">
</g>
</svg>
