<svg xmlns="http://www.w3.org/2000/svg" width="121" height="50" viewBox="0 0 121 50">
    <path fill="#14566a" fill-rule="evenodd" d="M17.883 19.29c-3.193 0-6.285 2.818-6.792 5.938-.507 3.12 1.47 5.938 4.663 5.938 3.55 0 6.185-2.818 6.692-5.938.507-3.12-1.014-5.938-4.563-5.938zM20.418 13c6.033 0 10.747 4.378 9.328 12.178-1.42 7.8-7.605 12.228-13.637 12.228-2.686 0-5.424-1.309-6.489-3.775L7.09 46.88C6.786 48.59 4.86 50 2.983 50 1.058 50-.26 48.641.043 46.88L5.617 16.32c.303-1.761 2.18-3.12 4.106-3.12 1.876 0 3.295 1.41 2.99 3.12l-.05.453C15.197 13.654 18.897 13 20.418 13zm33.339 3.842c-.557 1.746-2.431 2.545-4.001 2.545-.507 0-1.216-.05-1.671-.05-3.951 0-5.825 2.994-6.99 8.831l-.962 5.739C39.829 35.653 37.904 37 35.98 37c-1.874 0-3.242-1.397-2.938-3.093l3.14-17.614c.405-1.696 2.229-3.094 4.102-3.094 1.925 0 3.343 1.347 2.989 3.094l-.456 2.545C44.945 14.497 47.679 13 50.11 13c2.33 0 4.66.548 3.647 3.842zM63.438 0c2.35 0 3.899 1.784 3.5 4.128-.4 2.345-2.6 4.18-4.949 4.18-2.35 0-4.048-1.835-3.649-4.18C58.74 1.784 61.09 0 63.438 0zM61.04 33.84C60.69 35.624 58.84 37 56.941 37c-1.85 0-3.199-1.426-2.9-3.16l3.1-17.99c.4-1.733 2.199-3.16 4.048-3.16 1.9 0 3.3 1.376 2.949 3.16l-3.099 17.99zm13.3.022C73.976 35.633 72.048 37 70.067 37c-1.928 0-3.335-1.417-3.022-3.138l5.628-30.724C72.984 1.418 74.965 0 76.893 0c1.98 0 3.336 1.367 3.075 3.138L74.34 33.862zm13 0C86.976 35.633 85.048 37 83.067 37c-1.928 0-3.335-1.417-3.022-3.138l5.628-30.724C85.984 1.418 87.965 0 89.893 0c1.98 0 3.336 1.367 3.075 3.138L87.34 33.862zM17.039 50c-1.784-.057-2.9-1.572-2.567-3.443.324-1.822 2.05-3.45 3.793-3.451l94.757-.056c1.744-.001 2.9 1.57 2.576 3.393-.333 1.872-2 3.46-3.802 3.501L17.038 50zm88.35-19.342c3.151 0 6.301-2.857 6.801-6.021.5-3.163-1.55-6.02-4.7-6.02-3.5 0-6.001 2.857-6.501 6.02-.5 3.164.9 6.02 4.4 6.02zm8.301-15.052c.4-1.734 2.2-3.163 4.05-3.163 1.9 0 3.3 1.377 2.95 3.163l-3.1 18.012c-.35 1.785-2.2 3.163-4.1 3.163-1.85 0-3.2-1.429-2.9-3.163l.05-.46c-1.95 2.5-4.95 3.827-7.6 3.827-5.951 0-10.701-4.49-9.302-12.399 1.401-7.908 7.601-12.347 13.552-12.347 1.5 0 4.85.663 6.35 3.826l.05-.46z"/>
</svg>
